<?xml version="1.0" encoding="utf-8"?>
<!-- Generator: Adobe Illustrator 19.1.0, SVG Export Plug-In . SVG Version: 6.00 Build 0)  -->
<svg version="1.1" id="Layer_1" xmlns="http://www.w3.org/2000/svg" xmlns:xlink="http://www.w3.org/1999/xlink" x="0px" y="0px"
	 width="400px" height="200px" viewBox="0 0 400 200" style="enable-background:new 0 0 400 200;" xml:space="preserve">
<style type="text/css">
	.st0{fill:#FFFFFF;}
	.st1{fill:#004B8D;}
</style>
<rect class="st0" width="400" height="200"/>
<g>
	<path class="st1" d="M144.3,98.3c0,35.9-29.1,65-65,65c-35.9,0-65-29.1-65-65c0-35.9,29.1-65,65-65
		C115.2,33.2,144.3,62.3,144.3,98.3L144.3,98.3z"/>
	<path class="st0" d="M70.5,73.6c-3-3-3-8,0-11c1.5-1.5,3.4-2.3,5.5-2.3c2.1,0,4,0.8,5.5,2.3c3,3,3,8,0,11L76,79.1L70.5,73.6
		L70.5,73.6z M93.6,121.8c0.5,0.5,1.1,0.7,1.8,0.7c0.7,0,1.3-0.2,1.8-0.7c1-1,1-2.6,0-3.6L61.6,82.5c-7.9-7.9-7.9-20.9,0-28.8
		c3.8-3.8,9-6,14.4-6c5.4,0,10.6,2.1,14.4,6c3.8,3.8,6,9,6,14.4c0,5.4-2.1,10.6-6,14.4L84.9,88l-5.3-5.3l5.5-5.5c5-5,5-13.2,0-18.2
		c-2.4-2.4-5.7-3.8-9.1-3.8c-3.4,0-6.7,1.3-9.1,3.8c-5,5-5,13.2,0,18.2l7.3,7.3c0,0,0,0,0,0l7.2,7.2l21.2,21.2
		c0.5,0.5,1.1,0.7,1.8,0.7c0.7,0,1.3-0.2,1.8-0.7c1-1,1-2.6,0-3.6L88.5,91.6l5.5-5.5c4.8-4.8,7.5-11.2,7.5-18c0-6.8-2.6-13.2-7.5-18
		c-9.9-9.9-26.1-9.9-36,0c-9.9,9.9-9.9,26.1,0,36L93.6,121.8L93.6,121.8z"/>
	<path class="st0" d="M79.6,136.2c-3.9,0-7.6-1.5-10.4-4.3c-2.8-2.8-4.3-6.5-4.3-10.4c0-3.9,1.5-7.6,4.3-10.4l3.6-3.6
		c1-1,1-2.6,0-3.6c-1-1-2.6-1-3.6,0l-3.6,3.6c-3.7,3.7-5.8,8.7-5.8,14c0,5.3,2.1,10.3,5.8,14c3.7,3.7,8.7,5.8,14,5.8
		s10.3-2.1,14-5.8L121,108c1-1,1-2.6,0-3.6c-1-1-2.6-1-3.6,0L90,131.9C87.2,134.6,83.5,136.2,79.6,136.2L79.6,136.2z"/>
	<path class="st0" d="M129.7,113.5c-1-1-2.6-1-3.6,0l-27.2,27.2c-5.2,5.2-12,8-19.3,8c-7.3,0-14.1-2.8-19.3-8
		c-10.6-10.6-10.6-27.8-0.1-38.5l3.7-3.7c1-1,1-2.6,0-3.6c-1-1-2.6-1-3.6,0l-3.5,3.5c0,0,0,0,0,0c0,0-0.1,0.1-0.1,0.1l-0.1,0.1
		c0,0,0,0,0,0c-12.3,12.6-12.3,33,0.3,45.5c6.1,6.1,14.2,9.5,22.9,9.5c8.6,0,16.8-3.4,22.9-9.5l27.2-27.2
		C130.7,116.1,130.7,114.5,129.7,113.5L129.7,113.5z"/>
</g>
<g>
	<path class="st1" d="M167.2,58h2.2v15.4h7.4v1.9h-9.6V58z"/>
	<path class="st1" d="M181.4,69.5c0.1,3,2,4.3,4.2,4.3c1.6,0,2.6-0.3,3.4-0.6l0.4,1.6c-0.8,0.4-2.1,0.8-4.1,0.8
		c-3.8,0-6.1-2.5-6.1-6.2c0-3.7,2.2-6.7,5.8-6.7c4,0,5.1,3.6,5.1,5.8c0,0.5-0.1,0.8-0.1,1H181.4z M188,67.9c0-1.4-0.6-3.7-3.1-3.7
		c-2.3,0-3.3,2.1-3.5,3.7H188z"/>
	<path class="st1" d="M200.8,75.2l-0.2-1.6h-0.1c-0.7,1-2,1.8-3.8,1.8c-2.5,0-3.8-1.8-3.8-3.6c0-3,2.7-4.6,7.4-4.6v-0.3
		c0-1-0.3-2.9-2.8-2.9c-1.2,0-2.4,0.4-3.2,0.9l-0.5-1.5c1-0.7,2.5-1.1,4.1-1.1c3.8,0,4.7,2.6,4.7,5.1v4.6c0,1.1,0.1,2.1,0.2,3H200.8
		z M200.5,68.9c-2.5-0.1-5.2,0.4-5.2,2.8c0,1.5,1,2.1,2.1,2.1c1.6,0,2.6-1,3-2.1c0.1-0.2,0.1-0.5,0.1-0.7V68.9z"/>
	<path class="st1" d="M207.2,66.7c0-1.5,0-2.7-0.1-3.9h2l0.1,2.4h0.1c0.6-1.7,1.9-2.7,3.4-2.7c0.3,0,0.4,0,0.6,0.1v2.1
		c-0.2-0.1-0.5-0.1-0.8-0.1c-1.6,0-2.7,1.2-3,2.9c-0.1,0.3-0.1,0.7-0.1,1v6.6h-2.2V66.7z"/>
	<path class="st1" d="M216.7,66.2c0-1.3,0-2.3-0.1-3.3h2l0.1,2h0.1c0.6-1.2,2-2.3,4.1-2.3c1.7,0,4.4,1,4.4,5.3v7.4h-2.3v-7.1
		c0-2-0.7-3.7-2.9-3.7c-1.5,0-2.6,1-3,2.3c-0.1,0.3-0.2,0.7-0.2,1v7.4h-2.3V66.2z"/>
	<path class="st1" d="M234.3,59.4c0,0.8-0.5,1.4-1.4,1.4c-0.8,0-1.4-0.6-1.4-1.4c0-0.8,0.6-1.4,1.4-1.4
		C233.8,58,234.3,58.6,234.3,59.4z M231.8,75.2V62.9h2.3v12.4H231.8z"/>
	<path class="st1" d="M238.7,66.2c0-1.3,0-2.3-0.1-3.3h2l0.1,2h0.1c0.6-1.2,2-2.3,4.1-2.3c1.7,0,4.4,1,4.4,5.3v7.4H247v-7.1
		c0-2-0.7-3.7-2.9-3.7c-1.5,0-2.6,1-3,2.3c-0.1,0.3-0.2,0.7-0.2,1v7.4h-2.3V66.2z"/>
	<path class="st1" d="M264.6,62.9c-0.1,0.9-0.1,1.9-0.1,3.4v7.2c0,2.8-0.6,4.6-1.8,5.7c-1.2,1.1-2.9,1.5-4.5,1.5
		c-1.5,0-3.1-0.4-4.1-1l0.6-1.7c0.8,0.5,2.1,1,3.6,1c2.3,0,4-1.2,4-4.3v-1.4h-0.1c-0.7,1.2-2,2.1-3.9,2.1c-3.1,0-5.3-2.6-5.3-6
		c0-4.2,2.7-6.6,5.6-6.6c2.1,0,3.3,1.1,3.9,2.1h0.1l0.1-1.9H264.6z M262.3,67.8c0-0.4,0-0.7-0.1-1c-0.4-1.3-1.5-2.4-3.1-2.4
		c-2.1,0-3.7,1.8-3.7,4.7c0,2.4,1.2,4.4,3.7,4.4c1.4,0,2.6-0.9,3.1-2.3c0.1-0.4,0.2-0.8,0.2-1.2V67.8z"/>
	<path class="st1" d="M279.1,59.3v3.6h3.2v1.7h-3.2v6.7c0,1.5,0.4,2.4,1.7,2.4c0.6,0,1-0.1,1.3-0.2l0.1,1.7c-0.4,0.2-1.1,0.3-2,0.3
		c-1,0-1.9-0.3-2.4-0.9c-0.6-0.7-0.9-1.8-0.9-3.2v-6.8h-1.9v-1.7h1.9v-3L279.1,59.3z"/>
	<path class="st1" d="M296.8,69c0,4.6-3.2,6.6-6.2,6.6c-3.3,0-5.9-2.5-5.9-6.4c0-4.1,2.7-6.6,6.1-6.6
		C294.4,62.6,296.8,65.2,296.8,69z M287,69.1c0,2.7,1.6,4.8,3.8,4.8c2.1,0,3.8-2,3.8-4.8c0-2.1-1-4.8-3.7-4.8
		C288.1,64.3,287,66.7,287,69.1z"/>
	<path class="st1" d="M311.5,62.9c-0.1,0.9-0.1,1.9-0.1,3.4v7.2c0,2.8-0.6,4.6-1.8,5.7c-1.2,1.1-2.9,1.5-4.5,1.5
		c-1.5,0-3.1-0.4-4.1-1l0.6-1.7c0.8,0.5,2.1,1,3.6,1c2.3,0,4-1.2,4-4.3v-1.4h-0.1c-0.7,1.2-2,2.1-3.9,2.1c-3.1,0-5.3-2.6-5.3-6
		c0-4.2,2.7-6.6,5.6-6.6c2.1,0,3.3,1.1,3.9,2.1h0.1l0.1-1.9H311.5z M309.2,67.8c0-0.4,0-0.7-0.1-1c-0.4-1.3-1.5-2.4-3.1-2.4
		c-2.1,0-3.7,1.8-3.7,4.7c0,2.4,1.2,4.4,3.7,4.4c1.4,0,2.6-0.9,3.1-2.3c0.1-0.4,0.2-0.8,0.2-1.2V67.8z"/>
	<path class="st1" d="M317.5,69.5c0.1,3,2,4.3,4.2,4.3c1.6,0,2.6-0.3,3.4-0.6l0.4,1.6c-0.8,0.4-2.1,0.8-4.1,0.8
		c-3.8,0-6.1-2.5-6.1-6.2c0-3.7,2.2-6.7,5.8-6.7c4,0,5.1,3.6,5.1,5.8c0,0.5-0.1,0.8-0.1,1H317.5z M324.1,67.9c0-1.4-0.6-3.7-3.1-3.7
		c-2.3,0-3.3,2.1-3.5,3.7H324.1z"/>
	<path class="st1" d="M332.8,59.3v3.6h3.2v1.7h-3.2v6.7c0,1.5,0.4,2.4,1.7,2.4c0.6,0,1-0.1,1.3-0.2l0.1,1.7c-0.4,0.2-1.1,0.3-2,0.3
		c-1,0-1.9-0.3-2.4-0.9c-0.6-0.7-0.9-1.8-0.9-3.2v-6.8h-1.9v-1.7h1.9v-3L332.8,59.3z"/>
	<path class="st1" d="M339.5,57.1h2.3v7.7h0.1c0.4-0.6,0.9-1.2,1.6-1.6c0.7-0.4,1.5-0.6,2.3-0.6c1.7,0,4.3,1,4.3,5.3v7.4h-2.3v-7.1
		c0-2-0.7-3.7-2.9-3.7c-1.5,0-2.6,1-3,2.3c-0.1,0.3-0.2,0.6-0.2,1.1v7.5h-2.3V57.1z"/>
	<path class="st1" d="M356,69.5c0.1,3,2,4.3,4.2,4.3c1.6,0,2.6-0.3,3.4-0.6l0.4,1.6c-0.8,0.4-2.1,0.8-4.1,0.8
		c-3.8,0-6.1-2.5-6.1-6.2c0-3.7,2.2-6.7,5.8-6.7c4,0,5.1,3.6,5.1,5.8c0,0.5-0.1,0.8-0.1,1H356z M362.6,67.9c0-1.4-0.6-3.7-3.1-3.7
		c-2.3,0-3.3,2.1-3.5,3.7H362.6z"/>
	<path class="st1" d="M368.6,66.7c0-1.5,0-2.7-0.1-3.9h2l0.1,2.4h0.1c0.6-1.7,1.9-2.7,3.4-2.7c0.3,0,0.4,0,0.6,0.1v2.1
		c-0.2-0.1-0.5-0.1-0.8-0.1c-1.6,0-2.7,1.2-3,2.9c-0.1,0.3-0.1,0.7-0.1,1v6.6h-2.2V66.7z"/>
	<path class="st1" d="M181,100.2l-1.8,5.4h-2.3l5.9-17.2h2.7l5.9,17.2H189l-1.8-5.4H181z M186.6,98.5l-1.7-5
		c-0.4-1.1-0.6-2.1-0.9-3.1H184c-0.3,1-0.5,2.1-0.9,3.1l-1.7,5H186.6z"/>
	<path class="st1" d="M194.7,97.3c0-1.6-0.1-2.9-0.1-4h2l0.1,2.1h0.1c0.9-1.5,2.4-2.4,4.4-2.4c3,0,5.2,2.5,5.2,6.3
		c0,4.4-2.7,6.6-5.6,6.6c-1.6,0-3.1-0.7-3.8-1.9h-0.1v6.7h-2.2V97.3z M196.9,100.6c0,0.3,0.1,0.6,0.1,0.9c0.4,1.6,1.8,2.6,3.4,2.6
		c2.4,0,3.8-1.9,3.8-4.8c0-2.5-1.3-4.6-3.7-4.6c-1.5,0-3,1.1-3.4,2.8c-0.1,0.3-0.2,0.6-0.2,0.9V100.6z"/>
	<path class="st1" d="M210.3,97.1c0-1.5,0-2.7-0.1-3.9h2l0.1,2.4h0.1c0.6-1.7,1.9-2.7,3.4-2.7c0.3,0,0.4,0,0.6,0.1v2.1
		c-0.2-0.1-0.5-0.1-0.8-0.1c-1.6,0-2.7,1.2-3,2.9c-0.1,0.3-0.1,0.7-0.1,1v6.6h-2.2V97.1z"/>
	<path class="st1" d="M220.9,99.9c0.1,3,2,4.3,4.2,4.3c1.6,0,2.6-0.3,3.4-0.6l0.4,1.6c-0.8,0.4-2.1,0.8-4.1,0.8
		c-3.8,0-6.1-2.5-6.1-6.2s2.2-6.7,5.8-6.7c4,0,5.1,3.6,5.1,5.8c0,0.5-0.1,0.8-0.1,1H220.9z M227.5,98.3c0-1.4-0.6-3.7-3.1-3.7
		c-2.3,0-3.3,2.1-3.5,3.7H227.5z"/>
	<path class="st1" d="M233.5,96.6c0-1.3,0-2.3-0.1-3.3h2l0.1,2h0.1c0.6-1.2,2-2.3,4.1-2.3c1.7,0,4.4,1,4.4,5.3v7.4h-2.3v-7.1
		c0-2-0.7-3.7-2.9-3.7c-1.5,0-2.6,1-3,2.3c-0.1,0.3-0.2,0.7-0.2,1v7.4h-2.3V96.6z"/>
	<path class="st1" d="M259.4,87.5v15c0,1.1,0,2.4,0.1,3.2h-2l-0.1-2.1h-0.1c-0.7,1.4-2.2,2.4-4.2,2.4c-3,0-5.3-2.5-5.3-6.3
		c0-4.1,2.5-6.6,5.5-6.6c1.9,0,3.2,0.9,3.7,1.9h0.1v-7.4H259.4z M257.2,98.3c0-0.3,0-0.7-0.1-0.9c-0.3-1.4-1.6-2.6-3.2-2.6
		c-2.3,0-3.7,2-3.7,4.8c0,2.5,1.2,4.6,3.7,4.6c1.5,0,2.9-1,3.3-2.7c0.1-0.3,0.1-0.6,0.1-1V98.3z"/>
	<path class="st1" d="M265.5,99.9c0.1,3,2,4.3,4.2,4.3c1.6,0,2.6-0.3,3.4-0.6l0.4,1.6c-0.8,0.4-2.1,0.8-4.1,0.8
		c-3.8,0-6.1-2.5-6.1-6.2s2.2-6.7,5.8-6.7c4,0,5.1,3.6,5.1,5.8c0,0.5-0.1,0.8-0.1,1H265.5z M272.1,98.3c0-1.4-0.6-3.7-3.1-3.7
		c-2.3,0-3.3,2.1-3.5,3.7H272.1z"/>
	<path class="st1" d="M278.1,97.1c0-1.5,0-2.7-0.1-3.9h2l0.1,2.4h0.1c0.6-1.7,1.9-2.7,3.4-2.7c0.3,0,0.4,0,0.6,0.1v2.1
		c-0.2-0.1-0.5-0.1-0.8-0.1c-1.6,0-2.7,1.2-3,2.9c-0.1,0.3-0.1,0.7-0.1,1v6.6h-2.2V97.1z"/>
	<path class="st1" d="M291.6,109.2c1-0.1,1.9-0.4,2.5-0.9c0.6-0.7,0.8-1.7,0.8-4.7V93.3h2.3v11.2c0,2.4-0.4,4-1.5,5.1
		c-1,1-2.6,1.4-3.8,1.4L291.6,109.2z M297.4,89.8c0,0.7-0.5,1.4-1.4,1.4c-0.8,0-1.4-0.6-1.4-1.4c0-0.8,0.6-1.4,1.4-1.4
		C296.8,88.4,297.4,89,297.4,89.8z"/>
	<path class="st1" d="M312.1,102.3c0,1.3,0,2.4,0.1,3.4h-2l-0.1-2H310c-0.6,1-1.9,2.3-4.1,2.3c-1.9,0-4.3-1.1-4.3-5.4v-7.2h2.2v6.9
		c0,2.4,0.7,3.9,2.8,3.9c1.5,0,2.6-1,3-2c0.1-0.3,0.2-0.7,0.2-1.2v-7.6h2.2V102.3z"/>
	<path class="st1" d="M316.7,96.6c0-1.3,0-2.3-0.1-3.3h2l0.1,2h0.1c0.6-1.2,2-2.3,4.1-2.3c1.7,0,4.4,1,4.4,5.3v7.4H325v-7.1
		c0-2-0.7-3.7-2.9-3.7c-1.5,0-2.6,1-3,2.3c-0.1,0.3-0.2,0.7-0.2,1v7.4h-2.3V96.6z"/>
	<path class="st1" d="M334.4,89.7v3.6h3.2V95h-3.2v6.7c0,1.5,0.4,2.4,1.7,2.4c0.6,0,1-0.1,1.3-0.2l0.1,1.7c-0.4,0.2-1.1,0.3-2,0.3
		c-1,0-1.9-0.3-2.4-0.9c-0.6-0.7-0.9-1.8-0.9-3.2V95h-1.9v-1.7h1.9v-3L334.4,89.7z"/>
	<path class="st1" d="M352.2,99.3c0,4.6-3.2,6.6-6.2,6.6c-3.3,0-5.9-2.5-5.9-6.4c0-4.1,2.7-6.6,6.1-6.6
		C349.8,93,352.2,95.6,352.2,99.3z M342.3,99.5c0,2.7,1.6,4.8,3.8,4.8c2.1,0,3.8-2,3.8-4.8c0-2.1-1-4.8-3.7-4.8
		C343.5,94.7,342.3,97.1,342.3,99.5z"/>
	<path class="st1" d="M355.6,103.3c0.7,0.4,1.8,0.9,3,0.9c1.6,0,2.4-0.8,2.4-1.8c0-1.1-0.6-1.7-2.3-2.3c-2.2-0.8-3.3-2-3.3-3.5
		c0-2,1.6-3.6,4.3-3.6c1.3,0,2.4,0.4,3,0.8l-0.6,1.6c-0.5-0.3-1.4-0.7-2.5-0.7c-1.3,0-2.1,0.8-2.1,1.7c0,1,0.7,1.5,2.4,2.1
		c2.1,0.8,3.2,1.9,3.2,3.7c0,2.2-1.7,3.7-4.6,3.7c-1.4,0-2.6-0.3-3.5-0.8L355.6,103.3z"/>
	<path class="st1" d="M153.1,128.9l-1.8,5.4H149l5.9-17.2h2.7l5.9,17.2H161l-1.8-5.4H153.1z M158.7,127.2l-1.7-5
		c-0.4-1.1-0.6-2.1-0.9-3.1h-0.1c-0.3,1-0.5,2.1-0.9,3.1l-1.7,5H158.7z"/>
	<path class="st1" d="M166.8,126c0-1.6-0.1-2.9-0.1-4h2l0.1,2.1h0.1c0.9-1.5,2.4-2.4,4.4-2.4c3,0,5.2,2.5,5.2,6.3
		c0,4.4-2.7,6.6-5.6,6.6c-1.6,0-3.1-0.7-3.8-1.9H169v6.7h-2.2V126z M169,129.3c0,0.3,0.1,0.6,0.1,0.9c0.4,1.6,1.8,2.6,3.4,2.6
		c2.4,0,3.8-1.9,3.8-4.8c0-2.5-1.3-4.6-3.7-4.6c-1.5,0-3,1.1-3.4,2.8c-0.1,0.3-0.2,0.6-0.2,0.9V129.3z"/>
	<path class="st1" d="M182.4,126c0-1.6-0.1-2.9-0.1-4h2l0.1,2.1h0.1c0.9-1.5,2.4-2.4,4.4-2.4c3,0,5.2,2.5,5.2,6.3
		c0,4.4-2.7,6.6-5.6,6.6c-1.6,0-3.1-0.7-3.8-1.9h-0.1v6.7h-2.2V126z M184.7,129.3c0,0.3,0.1,0.6,0.1,0.9c0.4,1.6,1.8,2.6,3.4,2.6
		c2.4,0,3.8-1.9,3.8-4.8c0-2.5-1.3-4.6-3.7-4.6c-1.5,0-3,1.1-3.4,2.8c-0.1,0.3-0.2,0.6-0.2,0.9V129.3z"/>
	<path class="st1" d="M198.1,125.8c0-1.5,0-2.7-0.1-3.9h2l0.1,2.4h0.1c0.6-1.7,1.9-2.7,3.4-2.7c0.3,0,0.4,0,0.6,0.1v2.1
		c-0.2-0.1-0.5-0.1-0.8-0.1c-1.6,0-2.7,1.2-3,2.9c-0.1,0.3-0.1,0.7-0.1,1v6.6h-2.2V125.8z"/>
	<path class="st1" d="M208.6,128.6c0.1,3,2,4.3,4.2,4.3c1.6,0,2.6-0.3,3.4-0.6l0.4,1.6c-0.8,0.4-2.1,0.8-4.1,0.8
		c-3.8,0-6.1-2.5-6.1-6.2c0-3.7,2.2-6.7,5.8-6.7c4,0,5.1,3.6,5.1,5.8c0,0.5-0.1,0.8-0.1,1H208.6z M215.2,127c0-1.4-0.6-3.7-3.1-3.7
		c-2.3,0-3.3,2.1-3.5,3.7H215.2z"/>
	<path class="st1" d="M221.2,125.3c0-1.3,0-2.3-0.1-3.3h2l0.1,2h0.1c0.6-1.2,2-2.3,4.1-2.3c1.7,0,4.4,1,4.4,5.3v7.4h-2.3v-7.1
		c0-2-0.7-3.7-2.9-3.7c-1.5,0-2.6,1-3,2.3c-0.1,0.3-0.2,0.7-0.2,1v7.4h-2.3V125.3z"/>
	<path class="st1" d="M247.1,116.2v15c0,1.1,0,2.4,0.1,3.2h-2l-0.1-2.1h-0.1c-0.7,1.4-2.2,2.4-4.2,2.4c-3,0-5.3-2.5-5.3-6.3
		c0-4.1,2.5-6.6,5.5-6.6c1.9,0,3.2,0.9,3.7,1.9h0.1v-7.4H247.1z M244.9,127c0-0.3,0-0.7-0.1-0.9c-0.3-1.4-1.6-2.6-3.2-2.6
		c-2.3,0-3.7,2-3.7,4.8c0,2.5,1.2,4.6,3.7,4.6c1.5,0,2.9-1,3.3-2.7c0.1-0.3,0.1-0.6,0.1-1V127z"/>
	<path class="st1" d="M251.8,125.8c0-1.5,0-2.7-0.1-3.9h2l0.1,2.4h0.1c0.6-1.7,1.9-2.7,3.4-2.7c0.3,0,0.4,0,0.6,0.1v2.1
		c-0.2-0.1-0.5-0.1-0.8-0.1c-1.6,0-2.7,1.2-3,2.9c-0.1,0.3-0.1,0.7-0.1,1v6.6h-2.2V125.8z"/>
	<path class="st1" d="M262.4,128.6c0.1,3,2,4.3,4.2,4.3c1.6,0,2.6-0.3,3.4-0.6l0.4,1.6c-0.8,0.4-2.1,0.8-4.1,0.8
		c-3.8,0-6.1-2.5-6.1-6.2c0-3.7,2.2-6.7,5.8-6.7c4,0,5.1,3.6,5.1,5.8c0,0.5-0.1,0.8-0.1,1H262.4z M269,127c0-1.4-0.6-3.7-3.1-3.7
		c-2.3,0-3.3,2.1-3.5,3.7H269z"/>
	<path class="st1" d="M283.3,128.6c0.1,3,2,4.3,4.2,4.3c1.6,0,2.6-0.3,3.4-0.6l0.4,1.6c-0.8,0.4-2.1,0.8-4.1,0.8
		c-3.8,0-6.1-2.5-6.1-6.2c0-3.7,2.2-6.7,5.8-6.7c4,0,5.1,3.6,5.1,5.8c0,0.5-0.1,0.8-0.1,1H283.3z M289.9,127c0-1.4-0.6-3.7-3.1-3.7
		c-2.3,0-3.3,2.1-3.5,3.7H289.9z"/>
	<path class="st1" d="M295.9,125.3c0-1.3,0-2.3-0.1-3.3h2l0.1,2h0.1c0.6-1.2,2-2.3,4.1-2.3c1.7,0,4.4,1,4.4,5.3v7.4h-2.3v-7.1
		c0-2-0.7-3.7-2.9-3.7c-1.5,0-2.6,1-3,2.3c-0.1,0.3-0.2,0.7-0.2,1v7.4h-2.3V125.3z"/>
	<path class="st1" d="M310.7,132c0.7,0.4,1.8,0.9,3,0.9c1.6,0,2.4-0.8,2.4-1.8c0-1.1-0.6-1.7-2.3-2.3c-2.2-0.8-3.3-2-3.3-3.5
		c0-2,1.6-3.6,4.3-3.6c1.3,0,2.4,0.4,3,0.8l-0.6,1.6c-0.5-0.3-1.4-0.7-2.5-0.7c-1.3,0-2.1,0.8-2.1,1.7c0,1,0.7,1.5,2.4,2.1
		c2.1,0.8,3.2,1.9,3.2,3.7c0,2.2-1.7,3.7-4.6,3.7c-1.4,0-2.6-0.3-3.5-0.8L310.7,132z"/>
	<path class="st1" d="M323.4,128.6c0.1,3,2,4.3,4.2,4.3c1.6,0,2.6-0.3,3.4-0.6l0.4,1.6c-0.8,0.4-2.1,0.8-4.1,0.8
		c-3.8,0-6.1-2.5-6.1-6.2c0-3.7,2.2-6.7,5.8-6.7c4,0,5.1,3.6,5.1,5.8c0,0.5-0.1,0.8-0.1,1H323.4z M330,127c0-1.4-0.6-3.7-3.1-3.7
		c-2.3,0-3.3,2.1-3.5,3.7H330z"/>
	<path class="st1" d="M336,125.3c0-1.3,0-2.3-0.1-3.3h2l0.1,2h0.1c0.7-1.2,1.8-2.3,3.9-2.3c1.7,0,3,1,3.5,2.5h0.1
		c0.4-0.7,0.9-1.2,1.4-1.6c0.7-0.6,1.6-0.9,2.7-0.9c1.6,0,4.1,1.1,4.1,5.4v7.3h-2.2v-7c0-2.4-0.9-3.8-2.7-3.8c-1.3,0-2.3,0.9-2.7,2
		c-0.1,0.3-0.2,0.7-0.2,1.1v7.6h-2.2v-7.4c0-2-0.9-3.4-2.6-3.4c-1.4,0-2.4,1.1-2.8,2.3c-0.1,0.3-0.2,0.7-0.2,1.1v7.5H336V125.3z"/>
	<path class="st1" d="M358.2,134.3c0.1-0.8,0.1-2.1,0.1-3.2v-15h2.2v7.8h0.1c0.8-1.4,2.2-2.3,4.2-2.3c3.1,0,5.2,2.6,5.2,6.3
		c0,4.4-2.8,6.6-5.5,6.6c-1.8,0-3.2-0.7-4.1-2.3h-0.1l-0.1,2H358.2z M360.6,129.4c0,0.3,0.1,0.6,0.1,0.8c0.4,1.6,1.7,2.6,3.4,2.6
		c2.4,0,3.8-1.9,3.8-4.8c0-2.5-1.3-4.6-3.7-4.6c-1.5,0-3,1-3.4,2.8c-0.1,0.3-0.1,0.6-0.1,0.9V129.4z"/>
	<path class="st1" d="M374,116.2h2.3v18.2H374V116.2z"/>
	<path class="st1" d="M382.4,128.6c0.1,3,2,4.3,4.2,4.3c1.6,0,2.6-0.3,3.4-0.6l0.4,1.6c-0.8,0.4-2.1,0.8-4.1,0.8
		c-3.8,0-6.1-2.5-6.1-6.2c0-3.7,2.2-6.7,5.8-6.7c4,0,5.1,3.6,5.1,5.8c0,0.5-0.1,0.8-0.1,1H382.4z M389,127c0-1.4-0.6-3.7-3.1-3.7
		c-2.3,0-3.3,2.1-3.5,3.7H389z"/>
</g>
</svg>
