<?xml version="1.0" encoding="utf-8"?>
<!-- Generator: Adobe Illustrator 18.1.0, SVG Export Plug-In . SVG Version: 6.00 Build 0)  -->
<svg version="1.1" id="Layer_1" xmlns="http://www.w3.org/2000/svg" xmlns:xlink="http://www.w3.org/1999/xlink" x="0px" y="0px"
	 viewBox="0 0 200 100" enable-background="new 0 0 200 100" xml:space="preserve">
<rect fill="#FFFFFF" width="200" height="100"/>
<path fill="#13B6EA" d="M45.5,51.6c0-22.3,27.1-40.4,60.5-40.4c6.5,0,12.8,0.7,18.6,2c-9.2-3.8-20-6-31.6-6
	c-33.4,0-60.5,18.1-60.5,40.4c0,18,17.6,33.2,41.9,38.4C57,78.9,45.5,66.2,45.5,51.6z"/>
<path fill="#13B6EA" d="M152.9,77.1c8.5-7,13.6-15.8,13.6-25.5c0-18-17.6-33.2-41.9-38.4c17.3,7.1,28.9,19.9,28.9,34.4
	C153.5,69.9,126.4,88,93,88c-6.5,0-12.8-0.7-18.6-2c9.2,3.8,20,6,31.6,6c12.8,0,24.7-2.7,34.4-7.2c5.2,5.7,12.7,9.2,21.1,9.2
	c2.6,0,5.1-0.3,7.5-1C161.7,90.1,155.9,84.4,152.9,77.1z"/>
<g>
	<g>
		<path fill="#004B9D" d="M94.2,22.3l-5.4,28.2h-6l5.4-28.2H94.2z"/>
		<path fill="#004B9D" d="M99.6,22.7c2-0.4,4.6-0.7,7.4-0.7c2.9,0,5.1,0.4,7,1.5c1.9,1,3.3,2.8,3.3,5.2c0,3.6-2.6,5.8-5.7,6.7v0.1
			c2.7,0.8,4.4,3.1,4.4,6.2c0,3-1.6,5.2-3.9,6.7c-2.4,1.6-6,2.3-10.6,2.3c-3.2,0-5.7-0.2-7.1-0.5L99.6,22.7z M101.1,45.8
			c0.7,0.1,1.4,0.1,2.3,0.1c3.3,0,6.2-1.3,6.2-4.4c0-2.8-2.3-3.6-5.2-3.6h-1.9L101.1,45.8z M103.5,33.5h2c3.3,0,5.6-1.4,5.6-3.8
			c0-2.1-1.7-2.9-4-2.9c-1,0-1.9,0.1-2.3,0.2L103.5,33.5z"/>
	</g>
	<g>
		<path fill="#004B9D" d="M73.3,68.2c0-0.5,0.1-1.2,0.1-1.8h-0.1c-0.8,1.5-2,2-3,2c-1.6,0-2.7-1.3-2.7-3.2c0-3.1,2-6.3,6.5-6.3
			c1.1,0,2.2,0.2,3,0.4l-1,4.8c-0.2,1.2-0.4,3-0.4,4.1H73.3z M74.1,61.1c-0.2,0-0.5-0.1-0.7-0.1c-1.7,0-3,2.1-3,3.8
			c0,0.9,0.4,1.5,1.1,1.5c0.8,0,1.8-0.9,2.2-3.1L74.1,61.1z"/>
		<path fill="#004B9D" d="M77.7,68.2l1.2-6.1c0.2-1.2,0.4-2.2,0.5-3h2.4l-0.2,1.5h0c0.9-1.2,2-1.7,3.2-1.7c1.5,0,2.3,0.9,2.3,2.5
			c0,0.4-0.1,1.1-0.1,1.5l-1,5.3h-2.7l0.9-5c0.1-0.3,0.1-0.7,0.1-1c0-0.6-0.2-1.1-0.9-1.1c-0.9,0-1.9,1.1-2.3,3.1l-0.8,4H77.7z"/>
		<path fill="#004B9D" d="M88.5,65.8c0.5,0.3,1.5,0.6,2.4,0.6c0.8,0,1.2-0.4,1.2-0.8s-0.3-0.8-1.1-1.2C89.8,64,89,63.2,89,62.1
			c0-1.9,1.7-3.1,4-3.1c1.1,0,1.9,0.2,2.3,0.5l-0.6,1.9c-0.4-0.2-1-0.4-1.8-0.4c-0.7,0-1.2,0.3-1.2,0.8c0,0.4,0.4,0.7,1.1,1
			c1,0.5,2,1.2,2,2.5c0,2.1-1.8,3.2-4.2,3.2c-1.2,0-2.2-0.3-2.8-0.7L88.5,65.8z"/>
		<path fill="#004B9D" d="M99.3,59.2l0,3.8c0,1,0,1.9-0.1,2.9h0c0.3-1,0.7-1.9,1.1-2.8l1.8-4h2.2l0.2,3.8c0,1.1,0.1,1.9,0,2.9h0.1
			c0.3-1,0.6-1.9,1-3l1.5-3.8h2.7l-4.4,9.1H103l-0.3-3.2c-0.1-0.9-0.1-1.8-0.1-2.9h0c-0.5,1.3-0.7,1.9-1.1,2.8l-1.5,3.3h-2.5
			l-0.9-9.1H99.3z"/>
		<path fill="#004B9D" d="M116.9,67.7c-1.1,0.5-2.4,0.7-3.4,0.7c-2.6,0-3.9-1.5-3.9-3.8c0-2.8,2-5.6,5.3-5.6c1.8,0,3.2,1,3.2,2.7
			c0,2.3-2.2,3.2-5.9,3.1c0,0.3,0.1,0.7,0.3,0.9c0.4,0.5,1,0.7,1.7,0.7c1,0,1.8-0.2,2.5-0.6L116.9,67.7z M114.5,60.9
			c-1.2,0-1.9,1-2.1,1.9c2.1,0,3.1-0.3,3.1-1.1C115.5,61.2,115.1,60.9,114.5,60.9z"/>
		<path fill="#004B9D" d="M118.6,68.2l1-5.4c0.3-1.4,0.4-2.9,0.5-3.7h2.3c-0.1,0.6-0.1,1.2-0.2,1.9h0.1c0.6-1.2,1.7-2.1,2.9-2.1
			c0.2,0,0.3,0,0.5,0l-0.5,2.6c-0.1,0-0.3,0-0.4,0c-1.7,0-2.5,1.5-2.8,3.3l-0.6,3.4H118.6z"/>
		<path fill="#004B9D" d="M125.8,65.8c0.5,0.3,1.5,0.6,2.4,0.6c0.8,0,1.2-0.4,1.2-0.8s-0.3-0.8-1.1-1.2c-1.1-0.5-1.9-1.3-1.9-2.4
			c0-1.9,1.7-3.1,4-3.1c1.1,0,1.9,0.2,2.3,0.5l-0.6,1.9c-0.4-0.2-1-0.4-1.8-0.4c-0.7,0-1.2,0.3-1.2,0.8c0,0.4,0.4,0.7,1.1,1
			c1,0.5,2,1.2,2,2.5c0,2.1-1.8,3.2-4.2,3.2c-1.2,0-2.2-0.3-2.8-0.7L125.8,65.8z"/>
	</g>
</g>
<g>
</g>
<g>
</g>
<g>
</g>
<g>
</g>
<g>
</g>
<g>
</g>
<g>
</g>
<g>
</g>
<g>
</g>
<g>
</g>
<g>
</g>
<g>
</g>
<g>
</g>
<g>
</g>
<g>
</g>
</svg>
