<?xml version="1.0" standalone="no"?>
<!-- Generator: Adobe Fireworks 10, Export SVG Extension by Aaron Beall (http://fireworks.abeall.com) . Version: 0.6.1  -->
<!DOCTYPE svg PUBLIC "-//W3C//DTD SVG 1.1//EN" "http://www.w3.org/Graphics/SVG/1.1/DTD/svg11.dtd">
<svg id="Untitled-Page%201" viewBox="0 0 503 139" style="background-color:#ffffff00" version="1.1"
	xmlns="http://www.w3.org/2000/svg" xmlns:xlink="http://www.w3.org/1999/xlink" xml:space="preserve"
	x="0px" y="0px" width="163px" height="45px"
>
	<defs>
		<linearGradient id="gradient1" x1="20.2793%" y1="9.1691%" x2="78.3651%" y2="90.9572%">
			<stop stop-color="#66bcd8" stop-opacity="1" offset="30%"/>
			<stop stop-color="#2a3583" stop-opacity="1" offset="89%"/>
		</linearGradient>
	</defs>
	<g id="Layer_1_1">
		<path d="M 0 67.094 C 0 30.0392 30.1098 0 67.2518 0 C 104.3942 0 134.504 30.0392 134.504 67.094 C 134.504 104.1494 104.3942 134.1885 67.2518 134.1885 C 30.1098 134.1885 0 104.1494 0 67.094 Z" fill="#ffffff"/>
		<path d="M 57.0104 61.9851 L 57.0104 61.9851 Z" fill="#ffffff"/>
		<g>
			<g>
				<path d="M 113.2069 20.4099 C 125.5245 32.3865 133.1773 49.1157 133.1773 67.6295 C 133.1773 104.0442 103.5847 133.5654 67.0854 133.5654 C 38.0656 133.5654 13.414 114.9036 4.53 88.9536 C 12.1434 117.7582 38.4345 139 69.6993 139 C 106.9232 139 137.0969 108.8956 137.0969 71.759 C 137.0969 51.169 127.8183 32.7443 113.2069 20.4099 Z" fill="#bdbdbd"/>
			</g>
			<path d="M 134.504 67.2834 C 134.504 104.4852 104.2766 134.6393 66.9897 134.6393 C 35.2902 134.6393 8.7117 112.8474 1.4467 83.4645 C 14.6592 83.3145 27.189 80.3684 38.5048 75.222 L 38.5048 49.0062 C 38.5048 46.93 37.7807 45.4092 36.3369 44.4493 C 34.8931 43.4913 32.3284 43.0113 28.6377 43.0113 L 28.6377 40.5866 C 33.5293 40.421 38.0139 40.1343 42.0926 39.7249 C 46.1713 39.3141 49.6893 38.7007 52.6467 37.8771 L 52.6467 67.2074 C 52.6653 67.1924 52.6863 67.1782 52.7073 67.1646 L 52.7073 75.9517 C 52.7073 78.1078 52.7073 80.4668 52.7073 83.0234 C 52.7073 85.5032 52.6677 87.942 52.5858 90.339 C 52.5067 92.7369 52.3852 94.9742 52.2261 97.0558 C 52.0627 99.1315 51.8665 100.8898 51.626 102.3287 C 55.632 104.6478 60.0869 106.5639 64.9804 108.0856 C 69.8744 109.6034 74.4459 110.3638 78.6974 110.3638 C 82.3067 110.3638 85.794 109.8215 89.1651 108.7408 C 92.5358 107.664 95.5259 106.08 98.133 104.0004 C 100.7396 101.9189 102.847 99.3573 104.4494 96.3139 C 106.0518 93.2705 106.8554 89.8278 106.8554 85.9861 C 106.8554 82.4636 106.2528 79.2196 105.0471 76.257 C 103.8419 73.2948 102.1575 70.7323 99.9876 68.5719 C 97.8148 66.4106 95.2454 64.7092 92.2767 63.4684 C 89.3027 62.2275 86.0511 61.6049 82.5145 61.6049 C 79.8631 61.6049 77.1555 62.0698 74.383 62.9962 C 71.61 63.9225 69.0991 65.0728 66.8541 66.4407 L 66.8541 55.1067 C 79.0106 42.4335 87.5696 26.2942 90.8632 8.3125 C 75.8127 1.934 58.3747 1.1041 41.8804 7.3521 C 23.5543 14.2913 10.1555 28.534 3.7337 45.4978 C 9.9169 27.2372 23.9305 11.7756 43.4008 4.3982 C 59.6594 -1.7588 76.6417 -1.218 91.475 4.5627 C 91.4775 4.5476 91.4799 4.5335 91.4848 4.5184 C 116.6571 14.3055 134.504 38.708 134.504 67.2834 ZM 68.9049 101.7757 C 70.7459 104.936 73.8711 106.5132 78.2816 106.5132 C 82.6872 106.5132 85.8154 104.936 87.6608 101.7757 C 89.5038 98.6174 90.424 93.6385 90.424 86.8399 C 90.424 80.0433 89.5038 75.0638 87.6608 71.9045 C 85.8154 68.7457 82.6872 67.169 78.2816 67.169 C 73.8711 67.169 70.7459 68.7457 68.9049 71.9045 C 67.0595 75.0638 66.1393 80.0433 66.1393 86.8399 C 66.1393 93.6385 67.0595 98.6174 68.9049 101.7757 ZM 51.3127 30.3098 C 53.184 28.4877 54.1208 26.2061 54.1208 23.4655 C 54.1208 20.7292 53.184 18.4476 51.3127 16.6255 C 49.4439 14.8005 47.1779 13.8868 44.5221 13.8868 C 41.8589 13.8868 39.5934 14.8005 37.7246 16.6255 C 35.8509 18.4476 34.9214 20.7292 34.9214 23.4655 C 34.9214 26.2061 35.8509 28.4877 37.7246 30.3098 C 39.5934 32.1348 41.8589 33.0471 44.5221 33.0471 C 47.1779 33.0471 49.4439 32.1348 51.3127 30.3098 Z" fill="url(#gradient1)"/>
		</g>
		<g>
			<g>
				<path d="M 160.1121 37.9793 L 160.1121 18.2057 L 163.1256 18.2057 L 163.1256 37.9793 L 160.1121 37.9793 Z" fill="#2a3583"/>
				<path d="M 176.4214 37.9793 L 176.4214 28.9604 C 176.4214 27.5034 175.5207 26.0158 173.1596 26.0158 C 170.8921 26.0158 169.7733 27.5034 169.7733 28.9604 L 169.7733 37.9793 L 166.9466 37.9793 L 166.9466 23.9391 L 169.4317 23.9391 L 169.5561 25.3338 C 170.6433 24.1562 171.6997 23.5984 173.9051 23.5984 C 176.9806 23.5984 179.2486 25.5509 179.2486 28.6815 L 179.2486 37.9793 L 176.4214 37.9793 Z" fill="#2a3583"/>
				<path d="M 190.9298 26.2018 L 186.4564 26.2018 L 186.4564 34.0119 C 186.4564 35.1588 187.3884 35.779 188.5375 35.779 C 189.1279 35.779 189.6558 35.7167 190.0911 35.5619 L 189.5319 38.0723 C 189.2211 38.1652 188.8171 38.1964 188.2579 38.1964 C 185.7108 38.1964 183.66 36.7087 183.66 33.9189 L 183.66 26.2018 L 180.8954 26.2018 L 180.8954 23.9391 L 183.66 23.9391 L 183.66 21.088 L 186.4564 19.6315 L 186.4564 23.9391 L 191.4266 23.9391 L 190.9298 26.2018 Z" fill="#2a3583"/>
				<path d="M 205.002 30.0762 L 203.4177 31.6568 L 194.9363 31.6568 C 195.0295 33.3922 196.6451 35.8408 199.9382 35.8408 C 201.7397 35.8408 203.1376 35.3447 204.4429 34.415 L 203.728 37.4214 C 202.7341 37.9481 201.4601 38.32 199.5654 38.32 C 195.558 38.32 192.016 35.3447 192.016 30.9748 C 192.016 26.2018 195.7444 23.5984 199.0062 23.5984 C 202.8893 23.5984 205.0952 26.3259 205.0952 28.9293 C 205.0952 29.363 205.064 29.7661 205.002 30.0762 ZM 199.1614 26.0158 C 197.3907 26.0158 195.4955 27.4105 195.1227 29.363 L 202.2056 29.363 C 202.2369 29.2394 202.2369 29.1152 202.2369 28.9911 C 202.2369 27.5964 201.0253 26.0158 199.1614 26.0158 Z" fill="#2a3583"/>
				<path d="M 215.5025 26.1399 C 213.2345 26.1399 210.5006 27.3486 210.5006 31.3467 L 210.5006 37.9793 L 207.6735 37.9793 L 207.6735 23.9391 L 210.3455 23.9391 L 210.4699 26.1399 C 211.2155 24.404 213.1414 23.7532 215.2536 23.7532 L 215.7821 26.1399 C 215.6577 26.1399 215.5957 26.1399 215.5025 26.1399 Z" fill="#2a3583"/>
				<path d="M 227.4312 37.9793 L 227.4312 28.9604 C 227.4312 27.5034 226.5304 26.0158 224.1693 26.0158 C 221.9018 26.0158 220.7835 27.5034 220.7835 28.9604 L 220.7835 37.9793 L 217.9563 37.9793 L 217.9563 23.9391 L 220.4414 23.9391 L 220.5658 25.3338 C 221.653 24.1562 222.7094 23.5984 224.9149 23.5984 C 227.9903 23.5984 230.2583 25.5509 230.2583 28.6815 L 230.2583 37.9793 L 227.4312 37.9793 Z" fill="#2a3583"/>
				<path d="M 242.9642 38.32 C 242.001 38.1034 241.2242 37.3903 240.9139 36.5228 C 239.9195 37.8245 238.4908 38.32 236.9684 38.32 C 234.1725 38.32 232.4325 36.2745 232.4325 34.0119 C 232.4325 31.2849 234.6693 29.7349 237.0616 29.5183 L 240.3547 29.2082 L 240.3547 28.3096 C 240.3547 27.0386 239.6092 26.0158 237.6208 26.0158 C 236.2229 26.0158 234.7625 26.45 233.7373 27.1315 L 233.1781 24.8071 C 234.4521 23.9703 236.0677 23.5984 237.776 23.5984 C 240.9139 23.5984 243.1819 25.365 243.1819 28.6815 L 243.1819 34.3531 C 243.1819 35.6237 243.865 36.3675 244.7667 36.5228 L 242.9642 38.32 ZM 240.3547 31.5326 L 237.5588 31.7804 C 235.8813 31.9357 235.1352 33.0203 235.1352 34.0431 C 235.1352 35.0351 235.974 35.9338 237.0928 35.9338 C 238.584 35.9338 240.3547 34.5391 240.3547 32.7725 L 240.3547 31.5326 Z" fill="#2a3583"/>
				<path d="M 255.2037 26.2018 L 250.7303 26.2018 L 250.7303 34.0119 C 250.7303 35.1588 251.6622 35.779 252.8118 35.779 C 253.4013 35.779 253.9302 35.7167 254.3654 35.5619 L 253.8053 38.0723 C 253.4949 38.1652 253.0909 38.1964 252.5318 38.1964 C 249.9847 38.1964 247.9344 36.7087 247.9344 33.9189 L 247.9344 26.2018 L 245.1687 26.2018 L 245.1687 23.9391 L 247.9344 23.9391 L 247.9344 21.088 L 250.7303 19.6315 L 250.7303 23.9391 L 255.7004 23.9391 L 255.2037 26.2018 Z" fill="#2a3583"/>
				<path d="M 259.8323 21.2428 C 259.2731 21.2428 258.1235 20.0964 258.1235 19.5385 C 258.1235 18.9495 259.2731 17.8026 259.8323 17.8026 C 260.4227 17.8026 261.5723 18.9495 261.5723 19.5385 C 261.5723 20.0964 260.4227 21.2428 259.8323 21.2428 ZM 258.4036 37.9793 L 258.4036 23.9391 L 261.261 23.9391 L 261.261 37.9793 L 258.4036 37.9793 Z" fill="#2a3583"/>
				<path d="M 271.5126 38.32 C 267.3192 38.32 264.0257 35.3141 264.0257 30.9748 C 264.0257 26.6048 267.3192 23.5984 271.5126 23.5984 C 275.7069 23.5984 278.9683 26.6048 278.9683 30.9748 C 278.9683 35.3141 275.7069 38.32 271.5126 38.32 ZM 271.5126 26.0781 C 269.027 26.0781 266.884 28.0306 266.884 30.9748 C 266.884 33.8883 269.027 35.8408 271.5126 35.8408 C 273.9669 35.8408 276.111 33.8883 276.111 30.9748 C 276.111 28.0306 273.9669 26.0781 271.5126 26.0781 Z" fill="#2a3583"/>
				<path d="M 290.5247 37.9793 L 290.5247 28.9604 C 290.5247 27.5034 289.624 26.0158 287.2633 26.0158 C 284.9954 26.0158 283.877 27.5034 283.877 28.9604 L 283.877 37.9793 L 281.0499 37.9793 L 281.0499 23.9391 L 283.5354 23.9391 L 283.6594 25.3338 C 284.7465 24.1562 285.8024 23.5984 288.0089 23.5984 C 291.0839 23.5984 293.3518 25.5509 293.3518 28.6815 L 293.3518 37.9793 L 290.5247 37.9793 Z" fill="#2a3583"/>
				<path d="M 306.3378 38.32 C 305.3747 38.1034 304.5978 37.3903 304.2875 36.5228 C 303.2931 37.8245 301.8644 38.32 300.342 38.32 C 297.5461 38.32 295.8062 36.2745 295.8062 34.0119 C 295.8062 31.2849 298.0429 29.7349 300.4348 29.5183 L 303.7283 29.2082 L 303.7283 28.3096 C 303.7283 27.0386 302.9828 26.0158 300.9939 26.0158 C 299.5965 26.0158 298.1366 26.45 297.1109 27.1315 L 296.5517 24.8071 C 297.8253 23.9703 299.4413 23.5984 301.1501 23.5984 C 304.2875 23.5984 306.5555 25.365 306.5555 28.6815 L 306.5555 34.3531 C 306.5555 35.6237 307.2386 36.3675 308.1393 36.5228 L 306.3378 38.32 ZM 303.7283 31.5326 L 300.9324 31.7804 C 299.2549 31.9357 298.5093 33.0203 298.5093 34.0431 C 298.5093 35.0351 299.3476 35.9338 300.466 35.9338 C 301.9571 35.9338 303.7283 34.5391 303.7283 32.7725 L 303.7283 31.5326 Z" fill="#2a3583"/>
				<path d="M 313.7321 38.5371 C 312.8001 38.2894 310.9362 37.3596 310.9362 34.6632 L 310.9362 15.9119 L 313.7623 15.9119 L 313.7623 34.2913 C 313.7623 35.593 314.788 36.4605 315.6575 36.6158 L 313.7321 38.5371 Z" fill="#2a3583"/>
				<path d="M 332.3704 37.9793 L 325.9394 37.9793 L 325.9394 18.2057 L 331.4697 18.2057 C 334.1104 18.2057 337.0302 19.9104 337.0302 23.3813 C 337.0302 24.8382 336.3471 26.3566 335.1975 26.8526 C 337.0302 27.3798 338.8629 29.4253 338.8629 31.9664 C 338.8629 36.0579 335.4454 37.9793 332.3704 37.9793 ZM 330.972 20.7472 L 328.9217 20.7472 L 328.9217 25.954 L 330.972 25.954 C 332.588 25.954 333.9855 25.2102 333.9855 23.3813 C 333.9855 21.5217 332.588 20.7472 330.972 20.7472 ZM 331.7488 28.4955 L 328.9217 28.4955 L 328.9217 35.4377 L 331.7488 35.4377 C 333.8303 35.4377 335.7879 34.3838 335.7879 31.9664 C 335.7879 29.6113 333.8303 28.4955 331.7488 28.4955 Z" fill="#2a3583"/>
				<path d="M 351.1971 38.32 C 350.2339 38.1034 349.4571 37.3903 349.1468 36.5228 C 348.1523 37.8245 346.7236 38.32 345.2013 38.32 C 342.4054 38.32 340.6654 36.2745 340.6654 34.0119 C 340.6654 31.2849 342.9021 29.7349 345.294 29.5183 L 348.5876 29.2082 L 348.5876 28.3096 C 348.5876 27.0386 347.842 26.0158 345.8531 26.0158 C 344.4557 26.0158 342.9958 26.45 341.9701 27.1315 L 341.4109 24.8071 C 342.6845 23.9703 344.3005 23.5984 346.0093 23.5984 C 349.1468 23.5984 351.4147 25.365 351.4147 28.6815 L 351.4147 34.3531 C 351.4147 35.6237 352.0978 36.3675 352.9985 36.5228 L 351.1971 38.32 ZM 348.5876 31.5326 L 345.7917 31.7804 C 344.1141 31.9357 343.3686 33.0203 343.3686 34.0431 C 343.3686 35.0351 344.2068 35.9338 345.3252 35.9338 C 346.8163 35.9338 348.5876 34.5391 348.5876 32.7725 L 348.5876 31.5326 Z" fill="#2a3583"/>
				<path d="M 366.2012 27.1315 C 364.9277 26.3259 363.7781 26.0781 362.4109 26.0781 C 359.8326 26.0781 357.4407 27.9377 357.4407 30.9748 C 357.4407 33.9812 359.8951 35.8408 362.4734 35.8408 C 363.7781 35.8408 364.9277 35.593 366.5115 34.8492 L 365.9221 37.6074 C 364.8965 38.0723 363.623 38.32 362.2245 38.32 C 358.3727 38.32 354.5824 35.5619 354.5824 30.9748 C 354.5824 26.3566 358.3727 23.5984 362.2245 23.5984 C 364.0884 23.5984 365.5493 24.0014 366.7292 24.6523 L 366.2012 27.1315 Z" fill="#2a3583"/>
				<path d="M 379.2839 27.1315 C 378.0103 26.3259 376.8607 26.0781 375.4935 26.0781 C 372.9153 26.0781 370.5234 27.9377 370.5234 30.9748 C 370.5234 33.9812 372.9777 35.8408 375.556 35.8408 C 376.8607 35.8408 378.0103 35.593 379.5942 34.8492 L 379.0048 37.6074 C 377.9791 38.0723 376.7056 38.32 375.3072 38.32 C 371.4554 38.32 367.665 35.5619 367.665 30.9748 C 367.665 26.3566 371.4554 23.5984 375.3072 23.5984 C 377.1711 23.5984 378.632 24.0014 379.8118 24.6523 L 379.2839 27.1315 Z" fill="#2a3583"/>
				<path d="M 392.2689 38.32 C 391.3057 38.1034 390.5289 37.3903 390.2186 36.5228 C 389.2242 37.8245 387.7955 38.32 386.2731 38.32 C 383.4772 38.32 381.7372 36.2745 381.7372 34.0119 C 381.7372 31.2849 383.9739 29.7349 386.3658 29.5183 L 389.6594 29.2082 L 389.6594 28.3096 C 389.6594 27.0386 388.9138 26.0158 386.925 26.0158 C 385.5275 26.0158 384.0676 26.45 383.042 27.1315 L 382.4828 24.8071 C 383.7563 23.9703 385.3724 23.5984 387.0811 23.5984 C 390.2186 23.5984 392.4865 25.365 392.4865 28.6815 L 392.4865 34.3531 C 392.4865 35.6237 393.1696 36.3675 394.0704 36.5228 L 392.2689 38.32 ZM 389.6594 31.5326 L 386.8635 31.7804 C 385.186 31.9357 384.4404 33.0203 384.4404 34.0431 C 384.4404 35.0351 385.2787 35.9338 386.397 35.9338 C 387.8882 35.9338 389.6594 34.5391 389.6594 32.7725 L 389.6594 31.5326 Z" fill="#2a3583"/>
				<path d="M 399.9423 38.5371 C 399.0103 38.2894 397.1464 37.3596 397.1464 34.6632 L 397.1464 15.9119 L 399.9725 15.9119 L 399.9725 34.2913 C 399.9725 35.593 400.9982 36.4605 401.8677 36.6158 L 399.9423 38.5371 Z" fill="#2a3583"/>
				<path d="M 414.6673 38.32 C 413.7041 38.1034 412.9273 37.3903 412.617 36.5228 C 411.6226 37.8245 410.1939 38.32 408.6715 38.32 C 405.8756 38.32 404.1356 36.2745 404.1356 34.0119 C 404.1356 31.2849 406.3723 29.7349 408.7642 29.5183 L 412.0578 29.2082 L 412.0578 28.3096 C 412.0578 27.0386 411.3122 26.0158 409.3234 26.0158 C 407.9259 26.0158 406.466 26.45 405.4404 27.1315 L 404.8812 24.8071 C 406.1547 23.9703 407.7708 23.5984 409.4795 23.5984 C 412.617 23.5984 414.8849 25.365 414.8849 28.6815 L 414.8849 34.3531 C 414.8849 35.6237 415.568 36.3675 416.4688 36.5228 L 414.6673 38.32 ZM 412.0578 31.5326 L 409.2619 31.7804 C 407.5844 31.9357 406.8388 33.0203 406.8388 34.0431 C 406.8388 35.0351 407.6771 35.9338 408.7954 35.9338 C 410.2866 35.9338 412.0578 34.5391 412.0578 32.7725 L 412.0578 31.5326 Z" fill="#2a3583"/>
				<path d="M 428.4604 37.9793 L 428.3365 36.5846 C 427.2493 37.7622 426.1934 38.32 423.9869 38.32 C 420.912 38.32 418.644 36.3675 418.644 33.2374 L 418.644 23.9391 L 421.4711 23.9391 L 421.4711 32.9585 C 421.4711 34.415 422.3719 35.9026 424.7325 35.9026 C 427.0005 35.9026 428.1188 34.415 428.1188 32.9585 L 428.1188 23.9391 L 430.946 23.9391 L 430.946 37.9793 L 428.4604 37.9793 Z" fill="#2a3583"/>
				<path d="M 442.4086 26.1399 C 440.1407 26.1399 437.4073 27.3486 437.4073 31.3467 L 437.4073 37.9793 L 434.5801 37.9793 L 434.5801 23.9391 L 437.2521 23.9391 L 437.376 26.1399 C 438.1216 24.404 440.048 23.7532 442.1608 23.7532 L 442.6887 26.1399 C 442.5648 26.1399 442.5023 26.1399 442.4086 26.1399 Z" fill="#2a3583"/>
				<path d="M 456.4193 30.0762 L 454.8345 31.6568 L 446.3541 31.6568 C 446.4468 33.3922 448.0619 35.8408 451.3555 35.8408 C 453.157 35.8408 454.5554 35.3447 455.8601 34.415 L 455.1458 37.4214 C 454.1514 37.9481 452.8779 38.32 450.9827 38.32 C 446.9748 38.32 443.4333 35.3447 443.4333 30.9748 C 443.4333 26.2018 447.1612 23.5984 450.4235 23.5984 C 454.3065 23.5984 456.512 26.3259 456.512 28.9293 C 456.512 29.363 456.4808 29.7661 456.4193 30.0762 ZM 450.5787 26.0158 C 448.8075 26.0158 446.9133 27.4105 446.5405 29.363 L 453.6234 29.363 C 453.6547 29.2394 453.6547 29.1152 453.6547 28.9911 C 453.6547 27.5964 452.4426 26.0158 450.5787 26.0158 Z" fill="#2a3583"/>
				<path d="M 469.0287 38.32 C 468.0655 38.1034 467.2887 37.3903 466.9783 36.5228 C 465.9839 37.8245 464.5552 38.32 463.0329 38.32 C 460.237 38.32 458.497 36.2745 458.497 34.0119 C 458.497 31.2849 460.7337 29.7349 463.1256 29.5183 L 466.4192 29.2082 L 466.4192 28.3096 C 466.4192 27.0386 465.6736 26.0158 463.6848 26.0158 C 462.2873 26.0158 460.8274 26.45 459.8017 27.1315 L 459.2426 24.8071 C 460.5161 23.9703 462.1321 23.5984 463.8409 23.5984 C 466.9783 23.5984 469.2463 25.365 469.2463 28.6815 L 469.2463 34.3531 C 469.2463 35.6237 469.9294 36.3675 470.8301 36.5228 L 469.0287 38.32 ZM 466.4192 31.5326 L 463.6233 31.7804 C 461.9457 31.9357 461.2002 33.0203 461.2002 34.0431 C 461.2002 35.0351 462.0385 35.9338 463.1568 35.9338 C 464.6479 35.9338 466.4192 34.5391 466.4192 32.7725 L 466.4192 31.5326 Z" fill="#2a3583"/>
				<path d="M 481.2682 26.2018 L 476.7947 26.2018 L 476.7947 34.0119 C 476.7947 35.1588 477.7267 35.779 478.8763 35.779 C 479.4657 35.779 479.9946 35.7167 480.4289 35.5619 L 479.8697 38.0723 C 479.5594 38.1652 479.1554 38.1964 478.5962 38.1964 C 476.0491 38.1964 473.9988 36.7087 473.9988 33.9189 L 473.9988 26.2018 L 471.2332 26.2018 L 471.2332 23.9391 L 473.9988 23.9391 L 473.9988 21.088 L 476.7947 19.6315 L 476.7947 23.9391 L 481.7649 23.9391 L 481.2682 26.2018 Z" fill="#2a3583"/>
				<path d="M 495.1227 30.0762 L 493.5379 31.6568 L 485.0575 31.6568 C 485.1502 33.3922 486.7653 35.8408 490.0589 35.8408 C 491.8604 35.8408 493.2588 35.3447 494.5635 34.415 L 493.8492 37.4214 C 492.8548 37.9481 491.5812 38.32 489.6861 38.32 C 485.6782 38.32 482.1367 35.3447 482.1367 30.9748 C 482.1367 26.2018 485.8645 23.5984 489.1269 23.5984 C 493.0099 23.5984 495.2154 26.3259 495.2154 28.9293 C 495.2154 29.363 495.1842 29.7661 495.1227 30.0762 ZM 489.2821 26.0158 C 487.5108 26.0158 485.6167 27.4105 485.2439 29.363 L 492.3268 29.363 C 492.358 29.2394 492.358 29.1152 492.358 28.9911 C 492.358 27.5964 491.146 26.0158 489.2821 26.0158 Z" fill="#2a3583"/>
				<path d="M 166.0771 73.6219 L 159.6461 73.6219 L 159.6461 53.8483 L 165.1759 53.8483 C 167.8166 53.8483 170.737 55.5531 170.737 59.0239 C 170.737 60.4809 170.0533 61.9997 168.9038 62.4953 C 170.737 63.0225 172.5697 65.068 172.5697 67.609 C 172.5697 71.7006 169.1526 73.6219 166.0771 73.6219 ZM 164.6792 56.3899 L 162.6289 56.3899 L 162.6289 61.5966 L 164.6792 61.5966 C 166.2943 61.5966 167.6922 60.8528 167.6922 59.0239 C 167.6922 57.1644 166.2943 56.3899 164.6792 56.3899 ZM 165.4555 64.1382 L 162.6289 64.1382 L 162.6289 71.0804 L 165.4555 71.0804 C 167.537 71.0804 169.4942 70.027 169.4942 67.609 C 169.4942 65.2539 167.537 64.1382 165.4555 64.1382 Z" fill="#2a3583"/>
				<path d="M 184.9033 73.9627 C 183.9401 73.7461 183.1633 73.0329 182.853 72.1655 C 181.8586 73.4671 180.4299 73.9627 178.9075 73.9627 C 176.1116 73.9627 174.3716 71.9172 174.3716 69.655 C 174.3716 66.9275 176.6083 65.3776 179.0007 65.1609 L 182.2938 64.8509 L 182.2938 63.9522 C 182.2938 62.6812 181.5482 61.6585 179.5599 61.6585 C 178.1619 61.6585 176.7015 62.0922 175.6764 62.7742 L 175.1172 60.4497 C 176.3912 59.6129 178.0068 59.241 179.715 59.241 C 182.853 59.241 185.1204 61.0076 185.1204 64.3242 L 185.1204 69.9958 C 185.1204 71.2663 185.804 72.0102 186.7053 72.1655 L 184.9033 73.9627 ZM 182.2938 67.1753 L 179.4979 67.4231 C 177.8204 67.5784 177.0743 68.663 177.0743 69.6857 C 177.0743 70.6778 177.9131 71.5764 179.0319 71.5764 C 180.5231 71.5764 182.2938 70.1818 182.2938 68.4152 L 182.2938 67.1753 Z" fill="#2a3583"/>
				<path d="M 199.9079 62.7742 C 198.6344 61.9685 197.4848 61.7203 196.1181 61.7203 C 193.5394 61.7203 191.1475 63.5803 191.1475 66.6174 C 191.1475 69.6239 193.6018 71.4835 196.1801 71.4835 C 197.4848 71.4835 198.6344 71.2357 200.2188 70.4918 L 199.6283 73.25 C 198.6032 73.7149 197.3297 73.9627 195.9317 73.9627 C 192.0794 73.9627 188.2891 71.2045 188.2891 66.6174 C 188.2891 61.9997 192.0794 59.241 195.9317 59.241 C 197.7957 59.241 199.2556 59.6441 200.4364 60.2949 L 199.9079 62.7742 Z" fill="#2a3583"/>
				<path d="M 212.9896 62.7742 C 211.7161 61.9685 210.5665 61.7203 209.1998 61.7203 C 206.621 61.7203 204.2291 63.5803 204.2291 66.6174 C 204.2291 69.6239 206.6835 71.4835 209.2617 71.4835 C 210.5665 71.4835 211.7161 71.2357 213.3004 70.4918 L 212.71 73.25 C 211.6848 73.7149 210.4113 73.9627 209.0134 73.9627 C 205.1611 73.9627 201.3708 71.2045 201.3708 66.6174 C 201.3708 61.9997 205.1611 59.241 209.0134 59.241 C 210.8773 59.241 212.3372 59.6441 213.518 60.2949 L 212.9896 62.7742 Z" fill="#2a3583"/>
				<path d="M 225.9756 73.9627 C 225.0124 73.7461 224.2356 73.0329 223.9253 72.1655 C 222.9309 73.4671 221.5022 73.9627 219.9798 73.9627 C 217.1839 73.9627 215.4439 71.9172 215.4439 69.655 C 215.4439 66.9275 217.6806 65.3776 220.073 65.1609 L 223.3661 64.8509 L 223.3661 63.9522 C 223.3661 62.6812 222.6206 61.6585 220.6322 61.6585 C 219.2343 61.6585 217.7738 62.0922 216.7487 62.7742 L 216.1895 60.4497 C 217.4635 59.6129 219.0791 59.241 220.7874 59.241 C 223.9253 59.241 226.1928 61.0076 226.1928 64.3242 L 226.1928 69.9958 C 226.1928 71.2663 226.8764 72.0102 227.7776 72.1655 L 225.9756 73.9627 ZM 223.3661 67.1753 L 220.5702 67.4231 C 218.8922 67.5784 218.1466 68.663 218.1466 69.6857 C 218.1466 70.6778 218.9859 71.5764 220.1042 71.5764 C 221.5954 71.5764 223.3661 70.1818 223.3661 68.4152 L 223.3661 67.1753 Z" fill="#2a3583"/>
				<path d="M 233.6485 74.1798 C 232.7165 73.932 230.8526 73.0023 230.8526 70.3054 L 230.8526 51.5545 L 233.6797 51.5545 L 233.6797 69.9335 C 233.6797 71.2357 234.7049 72.1031 235.5749 72.2584 L 233.6485 74.1798 Z" fill="#2a3583"/>
				<path d="M 248.3735 73.9627 C 247.4103 73.7461 246.6335 73.0329 246.3232 72.1655 C 245.3288 73.4671 243.9001 73.9627 242.3777 73.9627 C 239.5818 73.9627 237.8418 71.9172 237.8418 69.655 C 237.8418 66.9275 240.0786 65.3776 242.4709 65.1609 L 245.764 64.8509 L 245.764 63.9522 C 245.764 62.6812 245.0185 61.6585 243.0296 61.6585 C 241.6322 61.6585 240.1718 62.0922 239.1466 62.7742 L 238.5874 60.4497 C 239.8614 59.6129 241.477 59.241 243.1858 59.241 C 246.3232 59.241 248.5902 61.0076 248.5902 64.3242 L 248.5902 69.9958 C 248.5902 71.2663 249.2743 72.0102 250.175 72.1655 L 248.3735 73.9627 ZM 245.764 67.1753 L 242.9681 67.4231 C 241.2906 67.5784 240.5445 68.663 240.5445 69.6857 C 240.5445 70.6778 241.3833 71.5764 242.5022 71.5764 C 243.9938 71.5764 245.764 70.1818 245.764 68.4152 L 245.764 67.1753 Z" fill="#2a3583"/>
				<path d="M 262.1666 73.6219 L 262.0427 72.2273 C 260.9555 73.4048 259.8996 73.9627 257.6932 73.9627 C 254.6182 73.9627 252.3502 72.0102 252.3502 68.8801 L 252.3502 59.5818 L 255.1774 59.5818 L 255.1774 68.6011 C 255.1774 70.0576 256.0781 71.5453 258.4388 71.5453 C 260.7067 71.5453 261.825 70.0576 261.825 68.6011 L 261.825 59.5818 L 264.6522 59.5818 L 264.6522 73.6219 L 262.1666 73.6219 Z" fill="#2a3583"/>
				<path d="M 276.1149 61.7826 C 273.8469 61.7826 271.1135 62.9913 271.1135 66.9894 L 271.1135 73.6219 L 268.2863 73.6219 L 268.2863 59.5818 L 270.9583 59.5818 L 271.0822 61.7826 C 271.8278 60.0467 273.7542 59.3958 275.867 59.3958 L 276.3949 61.7826 C 276.271 61.7826 276.2085 61.7826 276.1149 61.7826 Z" fill="#2a3583"/>
				<path d="M 290.7472 65.7188 L 289.1624 67.2994 L 280.682 67.2994 C 280.7747 69.0349 282.3898 71.4835 285.6833 71.4835 C 287.4848 71.4835 288.8833 70.9874 290.188 70.0576 L 289.4737 73.0641 C 288.4792 73.5908 287.2057 73.9627 285.3106 73.9627 C 281.3026 73.9627 277.7612 70.9874 277.7612 66.6174 C 277.7612 61.8444 281.489 59.241 284.7514 59.241 C 288.6344 59.241 290.8399 61.9685 290.8399 64.5719 C 290.8399 65.0057 290.8087 65.4087 290.7472 65.7188 ZM 284.9066 61.6585 C 283.1353 61.6585 281.2411 63.0531 280.8684 65.0057 L 287.9513 65.0057 C 287.9825 64.882 287.9825 64.7579 287.9825 64.6338 C 287.9825 63.2391 286.7705 61.6585 284.9066 61.6585 ZM 283.9746 57.2267 L 282.6698 55.9557 C 284.3162 55.4601 286.4289 54.5303 287.8889 53.1663 L 288.3856 55.336 C 286.8944 56.3587 285.6521 56.7925 283.9746 57.2267 Z" fill="#2a3583"/>
				<path d="M 303.5468 73.9627 C 302.5836 73.7461 301.8068 73.0329 301.4965 72.1655 C 300.5021 73.4671 299.0734 73.9627 297.551 73.9627 C 294.7551 73.9627 293.0151 71.9172 293.0151 69.655 C 293.0151 66.9275 295.2519 65.3776 297.6437 65.1609 L 300.9373 64.8509 L 300.9373 63.9522 C 300.9373 62.6812 300.1917 61.6585 298.2029 61.6585 C 296.8055 61.6585 295.3456 62.0922 294.3199 62.7742 L 293.7607 60.4497 C 295.0342 59.6129 296.6503 59.241 298.359 59.241 C 301.4965 59.241 303.7644 61.0076 303.7644 64.3242 L 303.7644 69.9958 C 303.7644 71.2663 304.4476 72.0102 305.3483 72.1655 L 303.5468 73.9627 ZM 300.9373 67.1753 L 298.1414 67.4231 C 296.4639 67.5784 295.7183 68.663 295.7183 69.6857 C 295.7183 70.6778 296.5566 71.5764 297.675 71.5764 C 299.1661 71.5764 300.9373 70.1818 300.9373 68.4152 L 300.9373 67.1753 Z" fill="#2a3583"/>
				<path d="M 315.7863 61.8444 L 311.3129 61.8444 L 311.3129 69.655 C 311.3129 70.8015 312.2448 71.4216 313.3944 71.4216 C 313.9839 71.4216 314.5128 71.3593 314.9471 71.2045 L 314.3879 73.7149 C 314.0775 73.8079 313.6735 73.8391 313.1143 73.8391 C 310.5673 73.8391 308.517 72.3514 308.517 69.5616 L 308.517 61.8444 L 305.7513 61.8444 L 305.7513 59.5818 L 308.517 59.5818 L 308.517 56.7306 L 311.3129 55.2741 L 311.3129 59.5818 L 316.283 59.5818 L 315.7863 61.8444 Z" fill="#2a3583"/>
				<path d="M 325.51 73.6219 L 325.51 53.8483 L 328.5235 53.8483 L 328.5235 73.6219 L 325.51 73.6219 Z" fill="#2a3583"/>
				<path d="M 341.8179 73.6219 L 341.8179 64.6031 C 341.8179 63.1461 340.9171 61.6585 338.5565 61.6585 C 336.2886 61.6585 335.1702 63.1461 335.1702 64.6031 L 335.1702 73.6219 L 332.3431 73.6219 L 332.3431 59.5818 L 334.8286 59.5818 L 334.9526 60.9765 C 336.0397 59.7989 337.0956 59.241 339.3021 59.241 C 342.3771 59.241 344.645 61.1936 344.645 64.3242 L 344.645 73.6219 L 341.8179 73.6219 Z" fill="#2a3583"/>
				<path d="M 356.3263 61.8444 L 351.8529 61.8444 L 351.8529 69.655 C 351.8529 70.8015 352.7848 71.4216 353.9344 71.4216 C 354.5238 71.4216 355.0528 71.3593 355.487 71.2045 L 354.9279 73.7149 C 354.6175 73.8079 354.2135 73.8391 353.6543 73.8391 C 351.1073 73.8391 349.057 72.3514 349.057 69.5616 L 349.057 61.8444 L 346.2913 61.8444 L 346.2913 59.5818 L 349.057 59.5818 L 349.057 56.7306 L 351.8529 55.2741 L 351.8529 59.5818 L 356.823 59.5818 L 356.3263 61.8444 Z" fill="#2a3583"/>
				<path d="M 370.3985 65.7188 L 368.8137 67.2994 L 360.3333 67.2994 C 360.426 69.0349 362.041 71.4835 365.3346 71.4835 C 367.1361 71.4835 368.5345 70.9874 369.8393 70.0576 L 369.125 73.0641 C 368.1305 73.5908 366.857 73.9627 364.9619 73.9627 C 360.9539 73.9627 357.4124 70.9874 357.4124 66.6174 C 357.4124 61.8444 361.1403 59.241 364.4027 59.241 C 368.2857 59.241 370.4912 61.9685 370.4912 64.5719 C 370.4912 65.0057 370.46 65.4087 370.3985 65.7188 ZM 364.5578 61.6585 C 362.7866 61.6585 360.8924 63.0531 360.5197 65.0057 L 367.6026 65.0057 C 367.6338 64.882 367.6338 64.7579 367.6338 64.6338 C 367.6338 63.2391 366.4218 61.6585 364.5578 61.6585 Z" fill="#2a3583"/>
				<path d="M 380.899 61.7826 C 378.631 61.7826 375.8976 62.9913 375.8976 66.9894 L 375.8976 73.6219 L 373.0704 73.6219 L 373.0704 59.5818 L 375.7424 59.5818 L 375.8663 61.7826 C 376.6119 60.0467 378.5383 59.3958 380.6511 59.3958 L 381.179 61.7826 C 381.0551 61.7826 380.9926 61.7826 380.899 61.7826 Z" fill="#2a3583"/>
				<path d="M 392.8281 73.6219 L 392.8281 64.6031 C 392.8281 63.1461 391.9274 61.6585 389.5667 61.6585 C 387.2988 61.6585 386.1804 63.1461 386.1804 64.6031 L 386.1804 73.6219 L 383.3533 73.6219 L 383.3533 59.5818 L 385.8388 59.5818 L 385.9628 60.9765 C 387.0499 59.7989 388.1058 59.241 390.3123 59.241 C 393.3873 59.241 395.6552 61.1936 395.6552 64.3242 L 395.6552 73.6219 L 392.8281 73.6219 Z" fill="#2a3583"/>
				<path d="M 408.3612 73.9627 C 407.398 73.7461 406.6212 73.0329 406.3109 72.1655 C 405.3164 73.4671 403.8877 73.9627 402.3654 73.9627 C 399.5695 73.9627 397.8295 71.9172 397.8295 69.655 C 397.8295 66.9275 400.0662 65.3776 402.4581 65.1609 L 405.7517 64.8509 L 405.7517 63.9522 C 405.7517 62.6812 405.0061 61.6585 403.0172 61.6585 C 401.6198 61.6585 400.1599 62.0922 399.1342 62.7742 L 398.575 60.4497 C 399.8486 59.6129 401.4646 59.241 403.1734 59.241 C 406.3109 59.241 408.5788 61.0076 408.5788 64.3242 L 408.5788 69.9958 C 408.5788 71.2663 409.2619 72.0102 410.1626 72.1655 L 408.3612 73.9627 ZM 405.7517 67.1753 L 402.9558 67.4231 C 401.2782 67.5784 400.5327 68.663 400.5327 69.6857 C 400.5327 70.6778 401.3709 71.5764 402.4893 71.5764 C 403.9804 71.5764 405.7517 70.1818 405.7517 68.4152 L 405.7517 67.1753 Z" fill="#2a3583"/>
				<path d="M 420.6006 61.8444 L 416.1272 61.8444 L 416.1272 69.655 C 416.1272 70.8015 417.0592 71.4216 418.2088 71.4216 C 418.7992 71.4216 419.3271 71.3593 419.7614 71.2045 L 419.2022 73.7149 C 418.8919 73.8079 418.4879 73.8391 417.9287 73.8391 C 415.3817 73.8391 413.3313 72.3514 413.3313 69.5616 L 413.3313 61.8444 L 410.5667 61.8444 L 410.5667 59.5818 L 413.3313 59.5818 L 413.3313 56.7306 L 416.1272 55.2741 L 416.1272 59.5818 L 421.0974 59.5818 L 420.6006 61.8444 Z" fill="#2a3583"/>
				<path d="M 425.2292 56.8854 C 424.6701 56.8854 423.5205 55.739 423.5205 55.1812 C 423.5205 54.5921 424.6701 53.4453 425.2292 53.4453 C 425.8196 53.4453 426.9692 54.5921 426.9692 55.1812 C 426.9692 55.739 425.8196 56.8854 425.2292 56.8854 ZM 423.8006 73.6219 L 423.8006 59.5818 L 426.6579 59.5818 L 426.6579 73.6219 L 423.8006 73.6219 Z" fill="#2a3583"/>
				<path d="M 436.9095 73.9627 C 432.7162 73.9627 429.4226 70.9567 429.4226 66.6174 C 429.4226 62.2475 432.7162 59.241 436.9095 59.241 C 441.1039 59.241 444.3653 62.2475 444.3653 66.6174 C 444.3653 70.9567 441.1039 73.9627 436.9095 73.9627 ZM 436.9095 61.7203 C 434.424 61.7203 432.2809 63.6733 432.2809 66.6174 C 432.2809 69.5309 434.424 71.4835 436.9095 71.4835 C 439.3639 71.4835 441.5079 69.5309 441.5079 66.6174 C 441.5079 63.6733 439.3639 61.7203 436.9095 61.7203 Z" fill="#2a3583"/>
				<path d="M 455.9216 73.6219 L 455.9216 64.6031 C 455.9216 63.1461 455.0209 61.6585 452.6602 61.6585 C 450.3923 61.6585 449.2739 63.1461 449.2739 64.6031 L 449.2739 73.6219 L 446.4468 73.6219 L 446.4468 59.5818 L 448.9324 59.5818 L 449.0563 60.9765 C 450.1434 59.7989 451.1993 59.241 453.4058 59.241 C 456.4808 59.241 458.7487 61.1936 458.7487 64.3242 L 458.7487 73.6219 L 455.9216 73.6219 Z" fill="#2a3583"/>
				<path d="M 471.7348 73.9627 C 470.7716 73.7461 469.9948 73.0329 469.6844 72.1655 C 468.69 73.4671 467.2614 73.9627 465.739 73.9627 C 462.9431 73.9627 461.2031 71.9172 461.2031 69.655 C 461.2031 66.9275 463.4398 65.3776 465.8317 65.1609 L 469.1253 64.8509 L 469.1253 63.9522 C 469.1253 62.6812 468.3797 61.6585 466.3909 61.6585 C 464.9934 61.6585 463.5335 62.0922 462.5078 62.7742 L 461.9487 60.4497 C 463.2222 59.6129 464.8382 59.241 466.547 59.241 C 469.6844 59.241 471.9524 61.0076 471.9524 64.3242 L 471.9524 69.9958 C 471.9524 71.2663 472.6355 72.0102 473.5363 72.1655 L 471.7348 73.9627 ZM 469.1253 67.1753 L 466.3294 67.4231 C 464.6519 67.5784 463.9063 68.663 463.9063 69.6857 C 463.9063 70.6778 464.7446 71.5764 465.8629 71.5764 C 467.3541 71.5764 469.1253 70.1818 469.1253 68.4152 L 469.1253 67.1753 Z" fill="#2a3583"/>
				<path d="M 479.129 74.1798 C 478.1971 73.932 476.3331 73.0023 476.3331 70.3054 L 476.3331 51.5545 L 479.1593 51.5545 L 479.1593 69.9335 C 479.1593 71.2357 480.1849 72.1031 481.0544 72.2584 L 479.129 74.1798 Z" fill="#2a3583"/>
				<path d="M 166.0771 109.2646 L 159.6461 109.2646 L 159.6461 89.491 L 165.1759 89.491 C 167.8166 89.491 170.737 91.1957 170.737 94.6666 C 170.737 96.1231 170.0533 97.6419 168.9038 98.1384 C 170.737 98.6651 172.5697 100.7106 172.5697 103.2517 C 172.5697 107.3427 169.1526 109.2646 166.0771 109.2646 ZM 164.6792 92.0321 L 162.6289 92.0321 L 162.6289 97.2388 L 164.6792 97.2388 C 166.2943 97.2388 167.6922 96.495 167.6922 94.6666 C 167.6922 92.807 166.2943 92.0321 164.6792 92.0321 ZM 165.4555 99.7809 L 162.6289 99.7809 L 162.6289 106.7235 L 165.4555 106.7235 C 167.537 106.7235 169.4942 105.6691 169.4942 103.2517 C 169.4942 100.8966 167.537 99.7809 165.4555 99.7809 Z" fill="#2a3583"/>
				<path d="M 184.9965 109.6054 C 184.0333 109.3883 183.2565 108.6756 182.9462 107.8081 C 181.9518 109.1098 180.5231 109.6054 179.0007 109.6054 C 176.2048 109.6054 174.4648 107.5598 174.4648 105.2972 C 174.4648 102.5702 176.7015 101.0202 179.0939 100.8031 L 182.387 100.4935 L 182.387 99.5949 C 182.387 98.3244 181.6414 97.3011 179.6531 97.3011 C 178.2551 97.3011 176.7947 97.7353 175.7696 98.4169 L 175.2104 96.0929 C 176.4844 95.2556 178.1 94.8837 179.8082 94.8837 C 182.9462 94.8837 185.2136 96.6508 185.2136 99.9668 L 185.2136 105.638 C 185.2136 106.9095 185.8972 107.6533 186.7985 107.8081 L 184.9965 109.6054 ZM 182.387 102.8185 L 179.5911 103.0658 C 177.9131 103.2206 177.1675 104.3061 177.1675 105.3284 C 177.1675 106.3205 178.0068 107.2191 179.1251 107.2191 C 180.6163 107.2191 182.387 105.8239 182.387 104.0578 L 182.387 102.8185 Z" fill="#2a3583"/>
				<path d="M 200.0631 98.4169 C 198.7896 97.6107 197.64 97.3634 196.2733 97.3634 C 193.6945 97.3634 191.3026 99.223 191.3026 102.2606 C 191.3026 105.2661 193.757 107.1256 196.3353 107.1256 C 197.64 107.1256 198.7896 106.8783 200.3739 106.1345 L 199.7835 108.8927 C 198.7583 109.3581 197.4848 109.6054 196.0869 109.6054 C 192.2346 109.6054 188.4443 106.8472 188.4443 102.2606 C 188.4443 97.6419 192.2346 94.8837 196.0869 94.8837 C 197.9508 94.8837 199.4107 95.2868 200.5915 95.9371 L 200.0631 98.4169 Z" fill="#2a3583"/>
				<path d="M 212.3963 109.2646 L 212.3963 100.2453 C 212.3963 98.7888 211.495 97.3011 209.1344 97.3011 C 206.8664 97.3011 205.7481 98.7888 205.7481 100.2453 L 205.7481 109.2646 L 202.921 109.2646 L 202.921 87.1972 L 205.7481 87.1972 C 205.7481 87.1972 205.7481 96.4337 205.7481 96.3713 C 206.7733 95.3793 207.8296 94.8837 209.88 94.8837 C 212.9554 94.8837 215.2234 96.8367 215.2234 99.9668 L 215.2234 109.2646 L 212.3963 109.2646 Z" fill="#2a3583"/>
				<path d="M 220.6908 92.5286 C 220.1316 92.5286 218.982 91.3817 218.982 90.8238 C 218.982 90.2348 220.1316 89.0879 220.6908 89.0879 C 221.2812 89.0879 222.4303 90.2348 222.4303 90.8238 C 222.4303 91.3817 221.2812 92.5286 220.6908 92.5286 ZM 219.2616 109.2646 L 219.2616 95.2245 L 222.1199 95.2245 L 222.1199 109.2646 L 219.2616 109.2646 Z" fill="#2a3583"/>
				<path d="M 229.5752 109.8225 C 228.6432 109.5742 226.7793 108.6444 226.7793 105.9486 L 226.7793 87.1972 L 229.6064 87.1972 L 229.6064 105.5766 C 229.6064 106.8783 230.6315 107.7458 231.5016 107.9006 L 229.5752 109.8225 Z" fill="#2a3583"/>
				<path d="M 237.7452 109.8225 C 236.8133 109.5742 234.9493 108.6444 234.9493 105.9486 L 234.9493 87.1972 L 237.7765 87.1972 L 237.7765 105.5766 C 237.7765 106.8783 238.8016 107.7458 239.6716 107.9006 L 237.7452 109.8225 Z" fill="#2a3583"/>
				<path d="M 254.8631 101.361 L 253.2783 102.9421 L 244.7969 102.9421 C 244.8896 104.678 246.5057 107.1256 249.7983 107.1256 C 251.5998 107.1256 252.9982 106.6301 254.303 105.7003 L 253.5886 108.7067 C 252.5952 109.2334 251.3207 109.6054 249.4255 109.6054 C 245.4186 109.6054 241.8766 106.6301 241.8766 102.2606 C 241.8766 97.4871 245.605 94.8837 248.8673 94.8837 C 252.7494 94.8837 254.9558 97.6107 254.9558 100.2141 C 254.9558 100.6483 254.9246 101.0514 254.8631 101.361 ZM 249.0215 97.3011 C 247.2513 97.3011 245.3561 98.6963 244.9833 100.6483 L 252.0663 100.6483 C 252.0975 100.5247 252.0975 100.4001 252.0975 100.2764 C 252.0975 98.8822 250.8854 97.3011 249.0215 97.3011 Z" fill="#2a3583"/>
				<path d="M 265.8906 97.4248 C 263.6226 97.4248 260.8892 98.634 260.8892 102.6325 L 260.8892 109.2646 L 258.0621 109.2646 L 258.0621 95.2245 L 260.734 95.2245 L 260.858 97.4248 C 261.6035 95.6898 263.5299 95.0385 265.6427 95.0385 L 266.1707 97.4248 C 266.0467 97.4248 265.9843 97.4248 265.8906 97.4248 Z" fill="#2a3583"/>
				<path d="M 277.6333 109.6054 C 276.6701 109.3883 275.8933 108.6756 275.583 107.8081 C 274.5886 109.1098 273.1599 109.6054 271.6375 109.6054 C 268.8416 109.6054 267.1016 107.5598 267.1016 105.2972 C 267.1016 102.5702 269.3383 101.0202 271.7302 100.8031 L 275.0238 100.4935 L 275.0238 99.5949 C 275.0238 98.3244 274.2783 97.3011 272.2894 97.3011 C 270.8919 97.3011 269.432 97.7353 268.4064 98.4169 L 267.8472 96.0929 C 269.1207 95.2556 270.7368 94.8837 272.4456 94.8837 C 275.583 94.8837 277.851 96.6508 277.851 99.9668 L 277.851 105.638 C 277.851 106.9095 278.5341 107.6533 279.4348 107.8081 L 277.6333 109.6054 ZM 275.0238 102.8185 L 272.2279 103.0658 C 270.5504 103.2206 269.8048 104.3061 269.8048 105.3284 C 269.8048 106.3205 270.6431 107.2191 271.7614 107.2191 C 273.2526 107.2191 275.0238 105.8239 275.0238 104.0578 L 275.0238 102.8185 Z" fill="#2a3583"/>
				<path d="M 289.8728 97.4871 L 285.3994 97.4871 L 285.3994 105.2972 C 285.3994 106.4441 286.3313 107.0643 287.4809 107.0643 C 288.0703 107.0643 288.5993 107.002 289.0335 106.8472 L 288.4744 109.3581 C 288.164 109.4506 287.76 109.4817 287.2008 109.4817 C 284.6538 109.4817 282.6035 107.9941 282.6035 105.2047 L 282.6035 97.4871 L 279.8378 97.4871 L 279.8378 95.2245 L 282.6035 95.2245 L 282.6035 92.3728 L 285.3994 90.9163 L 285.3994 95.2245 L 290.3695 95.2245 L 289.8728 97.4871 Z" fill="#2a3583"/>
				<path d="M 298.2283 109.6054 C 294.0349 109.6054 290.7413 106.5989 290.7413 102.2606 C 290.7413 97.8901 294.0349 94.8837 298.2283 94.8837 C 302.4226 94.8837 305.684 97.8901 305.684 102.2606 C 305.684 106.5989 302.4226 109.6054 298.2283 109.6054 ZM 298.2283 97.3634 C 295.7427 97.3634 293.5997 99.3155 293.5997 102.2606 C 293.5997 105.1736 295.7427 107.1256 298.2283 107.1256 C 300.6826 107.1256 302.8266 105.1736 302.8266 102.2606 C 302.8266 99.3155 300.6826 97.3634 298.2283 97.3634 Z" fill="#2a3583"/>
				<path d="M 316.4021 109.2646 L 316.4021 89.491 L 319.4156 89.491 L 319.4156 109.2646 L 316.4021 109.2646 Z" fill="#2a3583"/>
				<path d="M 332.9286 109.2646 L 332.9286 100.2453 C 332.9286 98.7888 332.0279 97.3011 329.6672 97.3011 C 327.3993 97.3011 326.2809 98.7888 326.2809 100.2453 L 326.2809 109.2646 L 323.4538 109.2646 L 323.4538 95.2245 L 325.9394 95.2245 L 326.0633 96.6196 C 327.1504 95.4416 328.2063 94.8837 330.4128 94.8837 C 333.4878 94.8837 335.7557 96.8367 335.7557 99.9668 L 335.7557 109.2646 L 332.9286 109.2646 Z" fill="#2a3583"/>
				<path d="M 347.1882 97.4871 L 342.7147 97.4871 L 342.7147 105.2972 C 342.7147 106.4441 343.6467 107.0643 344.7963 107.0643 C 345.3857 107.0643 345.9146 107.002 346.3489 106.8472 L 345.7897 109.3581 C 345.4794 109.4506 345.0754 109.4817 344.5162 109.4817 C 341.9691 109.4817 339.9188 107.9941 339.9188 105.2047 L 339.9188 97.4871 L 337.1532 97.4871 L 337.1532 95.2245 L 339.9188 95.2245 L 339.9188 92.3728 L 342.7147 90.9163 L 342.7147 95.2245 L 347.6849 95.2245 L 347.1882 97.4871 Z" fill="#2a3583"/>
				<path d="M 361.354 101.361 L 359.7692 102.9421 L 351.2888 102.9421 C 351.3815 104.678 352.9966 107.1256 356.2902 107.1256 C 358.0917 107.1256 359.4901 106.6301 360.7949 105.7003 L 360.0805 108.7067 C 359.0861 109.2334 357.8126 109.6054 355.9174 109.6054 C 351.9095 109.6054 348.368 106.6301 348.368 102.2606 C 348.368 97.4871 352.0959 94.8837 355.3582 94.8837 C 359.2412 94.8837 361.4467 97.6107 361.4467 100.2141 C 361.4467 100.6483 361.4155 101.0514 361.354 101.361 ZM 355.5134 97.3011 C 353.7422 97.3011 351.848 98.6963 351.4752 100.6483 L 358.5581 100.6483 C 358.5894 100.5247 358.5894 100.4001 358.5894 100.2764 C 358.5894 98.8822 357.3773 97.3011 355.5134 97.3011 Z" fill="#2a3583"/>
				<path d="M 372.2263 97.4248 C 369.9583 97.4248 367.2249 98.634 367.2249 102.6325 L 367.2249 109.2646 L 364.3978 109.2646 L 364.3978 95.2245 L 367.0698 95.2245 L 367.1937 97.4248 C 367.9393 95.6898 369.8657 95.0385 371.9784 95.0385 L 372.5064 97.4248 C 372.3824 97.4248 372.32 97.4248 372.2263 97.4248 Z" fill="#2a3583"/>
				<path d="M 384.0003 109.2646 L 384.0003 100.2453 C 384.0003 98.7888 383.0995 97.3011 380.7389 97.3011 C 378.4709 97.3011 377.3526 98.7888 377.3526 100.2453 L 377.3526 109.2646 L 374.5255 109.2646 L 374.5255 95.2245 L 377.011 95.2245 L 377.135 96.6196 C 378.2221 95.4416 379.278 94.8837 381.4845 94.8837 C 384.5595 94.8837 386.8274 96.8367 386.8274 99.9668 L 386.8274 109.2646 L 384.0003 109.2646 Z" fill="#2a3583"/>
				<path d="M 399.9998 109.6054 C 399.0367 109.3883 398.2598 108.6756 397.9495 107.8081 C 396.9551 109.1098 395.5264 109.6054 394.004 109.6054 C 391.2081 109.6054 389.4681 107.5598 389.4681 105.2972 C 389.4681 102.5702 391.7049 101.0202 394.0967 100.8031 L 397.3903 100.4935 L 397.3903 99.5949 C 397.3903 98.3244 396.6447 97.3011 394.6559 97.3011 C 393.2585 97.3011 391.7986 97.7353 390.7729 98.4169 L 390.2137 96.0929 C 391.4872 95.2556 393.1033 94.8837 394.812 94.8837 C 397.9495 94.8837 400.2174 96.6508 400.2174 99.9668 L 400.2174 105.638 C 400.2174 106.9095 400.9006 107.6533 401.8013 107.8081 L 399.9998 109.6054 ZM 397.3903 102.8185 L 394.5944 103.0658 C 392.9169 103.2206 392.1713 104.3061 392.1713 105.3284 C 392.1713 106.3205 393.0096 107.2191 394.128 107.2191 C 395.6191 107.2191 397.3903 105.8239 397.3903 104.0578 L 397.3903 102.8185 Z" fill="#2a3583"/>
				<path d="M 415.0977 98.4169 C 413.8241 97.6107 412.6746 97.3634 411.3073 97.3634 C 408.7291 97.3634 406.3372 99.223 406.3372 102.2606 C 406.3372 105.2661 408.7915 107.1256 411.3698 107.1256 C 412.6746 107.1256 413.8241 106.8783 415.408 106.1345 L 414.8186 108.8927 C 413.7929 109.3581 412.5194 109.6054 411.1209 109.6054 C 407.2692 109.6054 403.4789 106.8472 403.4789 102.2606 C 403.4789 97.6419 407.2692 94.8837 411.1209 94.8837 C 412.9849 94.8837 414.4458 95.2868 415.6256 95.9371 L 415.0977 98.4169 Z" fill="#2a3583"/>
				<path d="M 420.224 92.5286 C 419.6648 92.5286 418.5152 91.3817 418.5152 90.8238 C 418.5152 90.2348 419.6648 89.0879 420.224 89.0879 C 420.8144 89.0879 421.964 90.2348 421.964 90.8238 C 421.964 91.3817 420.8144 92.5286 420.224 92.5286 ZM 418.7953 109.2646 L 418.7953 95.2245 L 421.6526 95.2245 L 421.6526 109.2646 L 418.7953 109.2646 Z" fill="#2a3583"/>
				<path d="M 432.0906 109.6054 C 427.8973 109.6054 424.6037 106.5989 424.6037 102.2606 C 424.6037 97.8901 427.8973 94.8837 432.0906 94.8837 C 436.285 94.8837 439.5464 97.8901 439.5464 102.2606 C 439.5464 106.5989 436.285 109.6054 432.0906 109.6054 ZM 432.0906 97.3634 C 429.6051 97.3634 427.4621 99.3155 427.4621 102.2606 C 427.4621 105.1736 429.6051 107.1256 432.0906 107.1256 C 434.545 107.1256 436.689 105.1736 436.689 102.2606 C 436.689 99.3155 434.545 97.3634 432.0906 97.3634 Z" fill="#2a3583"/>
				<path d="M 451.3818 109.2646 L 451.3818 100.2453 C 451.3818 98.7888 450.4811 97.3011 448.1205 97.3011 C 445.8525 97.3011 444.7342 98.7888 444.7342 100.2453 L 444.7342 109.2646 L 441.907 109.2646 L 441.907 95.2245 L 444.3926 95.2245 L 444.5165 96.6196 C 445.6037 95.4416 446.6595 94.8837 448.866 94.8837 C 451.941 94.8837 454.209 96.8367 454.209 99.9668 L 454.209 109.2646 L 451.3818 109.2646 Z" fill="#2a3583"/>
				<path d="M 467.3814 109.6054 C 466.4182 109.3883 465.6414 108.6756 465.3311 107.8081 C 464.3366 109.1098 462.908 109.6054 461.3856 109.6054 C 458.5897 109.6054 456.8497 107.5598 456.8497 105.2972 C 456.8497 102.5702 459.0864 101.0202 461.4783 100.8031 L 464.7719 100.4935 L 464.7719 99.5949 C 464.7719 98.3244 464.0263 97.3011 462.0375 97.3011 C 460.64 97.3011 459.1801 97.7353 458.1544 98.4169 L 457.5953 96.0929 C 458.8688 95.2556 460.4848 94.8837 462.1936 94.8837 C 465.3311 94.8837 467.599 96.6508 467.599 99.9668 L 467.599 105.638 C 467.599 106.9095 468.2821 107.6533 469.1829 107.8081 L 467.3814 109.6054 ZM 464.7719 102.8185 L 461.976 103.0658 C 460.2985 103.2206 459.5529 104.3061 459.5529 105.3284 C 459.5529 106.3205 460.3911 107.2191 461.5095 107.2191 C 463.0007 107.2191 464.7719 105.8239 464.7719 104.0578 L 464.7719 102.8185 Z" fill="#2a3583"/>
				<path d="M 474.8996 109.8225 C 473.9676 109.5742 472.1037 108.6444 472.1037 105.9486 L 472.1037 87.1972 L 474.9298 87.1972 L 474.9298 105.5766 C 474.9298 106.8783 475.9554 107.7458 476.825 107.9006 L 474.8996 109.8225 Z" fill="#2a3583"/>
			</g>
			<g>
				<path d="M 503 17.1488 C 503 19.5565 501.1302 21.4346 498.7052 21.4346 C 496.2801 21.4346 494.4093 19.5565 494.4093 17.1488 C 494.4093 14.7421 496.2801 12.8641 498.7052 12.8641 C 501.1302 12.8641 503 14.7421 503 17.1488 ZM 495.0788 17.1488 C 495.0788 19.1992 496.6265 20.8241 498.7052 20.8241 C 500.7828 20.8241 502.3306 19.1992 502.3306 17.1488 C 502.3306 15.0984 500.7828 13.4745 498.7052 13.4745 C 496.6265 13.4745 495.0788 15.0984 495.0788 17.1488 ZM 497.7585 19.6256 L 497.1467 19.6256 L 497.1467 14.672 L 499.0506 14.672 C 500.1709 14.672 500.6677 15.1569 500.6677 16.0428 C 500.6677 16.9191 500.0909 17.3104 499.4205 17.4253 L 500.8989 19.6256 L 500.1836 19.6256 L 498.7862 17.4253 L 497.7585 17.4253 L 497.7585 19.6256 ZM 498.5666 16.9074 C 499.317 16.9074 500.0558 16.884 500.0558 16.0428 C 500.0558 15.3516 499.4781 15.1909 498.8789 15.1909 L 497.7585 15.1909 L 497.7585 16.9074 L 498.5666 16.9074 Z" fill="#bdbdbd"/>
			</g>
		</g>
	</g>
</svg>