<svg xmlns="http://www.w3.org/2000/svg" viewBox="0 0 16 16" width="16px" height="16px"><defs><style>.cls-1{fill:#4b41b9;}.cls-2,.cls-3{fill:#eb872d;}.cls-3,.cls-9{opacity:0.4;}.cls-4{opacity:0.5;}.cls-5{fill:#f5e6c8;}.cls-6{opacity:0.2;}.cls-7{opacity:0.05;}.cls-8{opacity:0.6;}.cls-10{opacity:0.3;}.cls-11{opacity:0.7;}</style></defs><path d="M13 12h-2v-2H5v2H3v1H1v1H0v2h16v-2h-1v-1h-2v-1z" class="cls-1"/><path d="M9 13h2v1H9z" class="cls-2"/><path d="M11 13h1v1h-1z" class="cls-3"/><g class="cls-4"><path d="M15 14h-1v-1h1zM2 14H1v-1h1zM0 14h1v2H0zM15 14h1v2h-1zM12 12h1v1h-1zM9 10h2v1H9zM5 10h2v1H5zM3 12h1v1H3zM9 11v1H8v4H7v-5h2z"/></g><path d="M11 2h-1V1H6v1H5v8h2v1h2v-1h2V2z" class="cls-5"/><g class="cls-6"><path d="M4 8h1v1H4zM11 8h1v1h-1z"/></g><g class="cls-7"><path d="M4 9h1v2H4zM11 9h1v2h-1z"/></g><g class="cls-6"><path d="M3 13H2v-1h1zM14 13h-1v-1h1zM5 12H4v-1h1zM12 12h-1v-1h1zM1 15h6v1H1zM8 15h7v1H8z"/></g><g class="cls-8"><path d="M11 2h1v5h-1zM4 2h1v5H4z"/></g><g class="cls-4"><path d="M4 7h1v1H4zM11 7h1v1h-1zM10 9h1v1h-1zM5 9h1v1H5z"/></g><path d="M7 10h2v1H7z" class="cls-9"/><g class="cls-10"><path d="M10 2h1v1h-1zM9 1h1v1H9zM5 2h1v1H5zM6 1h1v1H6zM9 9h1v1H9zM6 9h1v1H6zM10 8h1v1h-1zM5 8h1v1H5z"/></g><g class="cls-11"><path d="M10 1h1v1h-1zM5 1h1v1H5zM6 0h4v1H6z"/></g></svg>